<svg id="_002-money" data-name="002-money" xmlns="http://www.w3.org/2000/svg" width="162" height="162" viewBox="0 0 162 162">
  <path id="Path_22" data-name="Path 22" d="M409.461,249.232v18.984l-6.549,7.973H366.461L362,268.216V249.232l11.3-10.346c-.475-.475,5.411,0,12.435.664,9.4.949,20.788,2.278,20.788,2.278Zm0,0" transform="translate(-247.461 -163.169)" fill="#ff9f00"/>
  <path id="Path_23" data-name="Path 23" d="M460.73,251.081v18.984l-6.549,7.973H437V241.4c9.4.949,20.788,2.278,20.788,2.278Zm0,0" transform="translate(-298.73 -165.018)" fill="#ff7816"/>
  <path id="Path_24" data-name="Path 24" d="M184.4,4.746V23.73a4.746,4.746,0,0,1-9.492,0v-7.5L126.021,65.338a4.588,4.588,0,0,1-6.645,0L103.715,49.771,69.068,84.322a4.588,4.588,0,0,1-6.645,0,4.588,4.588,0,0,1,0-6.645l37.969-37.969a4.588,4.588,0,0,1,6.645,0L122.7,55.276,168.167,9.492h-7.5a4.7,4.7,0,0,1-4.746-4.746A4.7,4.7,0,0,1,160.668,0h18.984A4.7,4.7,0,0,1,184.4,4.746Zm0,0" transform="translate(-41.699)" fill="#e63950"/>
  <g id="Group_6" data-name="Group 6" transform="translate(0 118.146)">
    <path id="Path_25" data-name="Path 25" d="M47.461,396.746v14.238s-17.181,8.922-18.13,8.922c-.379,0-2.848.1-5.6.19-3.986,0-8.638.094-8.638.094L0,410.984V396.746A4.7,4.7,0,0,1,4.746,392H42.715A4.7,4.7,0,0,1,47.461,396.746Zm0,0" transform="translate(0 -386.114)" fill="#ff9f00"/>
    <path id="Path_26" data-name="Path 26" d="M228.461,381.129v18.984l-7.119,10.062h-30L181,400.114V381.129l8.353-5.032h30.47Zm0,0" transform="translate(-123.73 -375.244)" fill="#ff9f00"/>
    <path id="Path_27" data-name="Path 27" d="M409.461,379.284v18.984l-5.316,7.4H371.207l-9.207-7.4V379.284l6.265-5.886h33.223Zm0,0" transform="translate(-247.461 -373.398)" fill="#ff9f00"/>
  </g>
  <path id="Path_28" data-name="Path 28" d="M317.7,4.746V23.73a4.746,4.746,0,0,1-9.492,0v-7.5L259.322,65.338A4.453,4.453,0,0,1,256,66.762V55.276L301.467,9.492h-7.5a4.7,4.7,0,0,1-4.746-4.746A4.7,4.7,0,0,1,293.969,0h18.984A4.7,4.7,0,0,1,317.7,4.746Zm0,0" transform="translate(-175)" fill="#cc2e43"/>
  <path id="Path_29" data-name="Path 29" d="M279.73,381.129v18.984l-7.119,10.062H256V376.1h15.092Zm0,0" transform="translate(-175 -257.098)" fill="#ff7816"/>
  <path id="Path_30" data-name="Path 30" d="M452.757,373.4l7.973,5.886v18.984l-5.316,7.4H437V373.4Zm0,0" transform="translate(-298.73 -255.253)" fill="#ff7816"/>
  <path id="Path_31" data-name="Path 31" d="M98.73,396.746v14.238s-17.181,8.922-18.13,8.922c-.379,0-2.848.1-5.6.19V392H93.984A4.7,4.7,0,0,1,98.73,396.746Zm0,0" transform="translate(-51.27 -267.969)" fill="#ff7816"/>
  <path id="Path_32" data-name="Path 32" d="M409.461,452v14.238a4.7,4.7,0,0,1-4.746,4.746H366.746A4.7,4.7,0,0,1,362,466.238V452Zm0,0" transform="translate(-247.461 -308.984)" fill="#ffd400"/>
  <path id="Path_33" data-name="Path 33" d="M228.461,452v14.238a4.7,4.7,0,0,1-4.746,4.746H185.746A4.7,4.7,0,0,1,181,466.238V452Zm0,0" transform="translate(-123.73 -308.984)" fill="#ffd400"/>
  <path id="Path_34" data-name="Path 34" d="M47.461,452v14.238a4.7,4.7,0,0,1-4.746,4.746H4.746A4.7,4.7,0,0,1,0,466.238V452Zm0,0" transform="translate(0 -308.984)" fill="#ffd400"/>
  <path id="Path_35" data-name="Path 35" d="M256,452h23.73v14.238a4.7,4.7,0,0,1-4.746,4.746H256Zm0,0" transform="translate(-175 -308.984)" fill="#fdbf00"/>
  <path id="Path_36" data-name="Path 36" d="M437,452h23.73v14.238a4.7,4.7,0,0,1-4.746,4.746H437Zm0,0" transform="translate(-298.73 -308.984)" fill="#fdbf00"/>
  <path id="Path_37" data-name="Path 37" d="M98.73,452v14.238a4.7,4.7,0,0,1-4.746,4.746H75V452Zm0,0" transform="translate(-51.27 -308.984)" fill="#fdbf00"/>
  <path id="Path_38" data-name="Path 38" d="M362,332h47.461v18.984H362Zm0,0" transform="translate(-247.461 -226.953)" fill="#ffd400"/>
  <path id="Path_39" data-name="Path 39" d="M228.461,336.746v14.238H181V336.746A4.7,4.7,0,0,1,185.746,332h37.969A4.7,4.7,0,0,1,228.461,336.746Zm0,0" transform="translate(-123.73 -226.953)" fill="#ffd400"/>
  <path id="Path_40" data-name="Path 40" d="M279.73,336.746v14.238H256V332h18.984A4.7,4.7,0,0,1,279.73,336.746Zm0,0" transform="translate(-175 -226.953)" fill="#fdbf00"/>
  <path id="Path_41" data-name="Path 41" d="M437,332h23.73v18.984H437Zm0,0" transform="translate(-298.73 -226.953)" fill="#fdbf00"/>
  <path id="Path_42" data-name="Path 42" d="M409.461,201.746V220.73H362V201.746A4.7,4.7,0,0,1,366.746,197h37.969A4.7,4.7,0,0,1,409.461,201.746Zm0,0" transform="translate(-247.461 -134.668)" fill="#ffd400"/>
  <path id="Path_43" data-name="Path 43" d="M460.73,201.746V220.73H437V197h18.984A4.7,4.7,0,0,1,460.73,201.746Zm0,0" transform="translate(-298.73 -134.668)" fill="#fdbf00"/>
</svg>
