<svg id="Layer_1" height="512" viewBox="0 0 512 512" width="512" xmlns="http://www.w3.org/2000/svg" data-name="Layer 1"><path d="m501 380.19h-40.27a80.276 80.276 0 0 0 -23.59-56.95l28.48-28.47a120.457 120.457 0 0 1 35.38 85.42z" fill="#50dd5a"/><path d="m460.73 380.19h40.27a120.463 120.463 0 0 1 -35.38 85.43l-28.48-28.48a80.276 80.276 0 0 0 23.59-56.95z" fill="#d8ff33"/><path d="m385.32 259.5a120.35 120.35 0 0 1 80.3 35.27l-28.48 28.47a80.276 80.276 0 0 0 -56.95-23.59v-40.27q2.58 0 5.13.12z" fill="#d8ff33"/><path d="m437.14 437.14 28.48 28.48a120.463 120.463 0 0 1 -85.43 35.38v-40.27a80.276 80.276 0 0 0 56.95-23.59z" fill="#50dd5a"/><path d="m437.14 323.24a80.538 80.538 0 1 1 -56.95-23.59 80.276 80.276 0 0 1 56.95 23.59z" fill="#ccd3df"/><path d="m384.32 72.94 1 186.56q-2.55-.12-5.13-.12a120.408 120.408 0 0 0 -46.51 9.28l-52.77-225.44.22-.05 72.69-.39a30.325 30.325 0 0 1 30.5 30.16z" fill="#b0b5ca"/><path d="m380.19 460.73v40.27a120.457 120.457 0 0 1 -85.42-35.38l28.47-28.48a80.276 80.276 0 0 0 56.95 23.59z" fill="#d8ff33"/><path d="m380.19 259.38v40.27a80.276 80.276 0 0 0 -56.95 23.59l-28.47-28.47-.01-.01a120.5 120.5 0 0 1 85.43-35.38z" fill="#50dd5a"/><path d="m333.68 268.66-55.07-235.27a29 29 0 0 0 -34.84-21.62l-210.38 49.25a28.99 28.99 0 0 0 -21.62 34.84l70.07 299.32a28.99 28.99 0 0 0 34.84 21.62l142.74-33.41c-.03-1.06-.04-2.13-.04-3.2a120.9 120.9 0 0 1 74.3-111.53z" fill="#f4f8fc"/><path d="m262.76 408.67a121.026 121.026 0 0 1 -3.34-25.28c-.03-1.06-.04-2.13-.04-3.2h40.27a80.276 80.276 0 0 0 23.59 56.95l-28.47 28.48a120.646 120.646 0 0 1 -32.01-56.95z" fill="#50dd5a"/><path d="m294.77 294.77 28.47 28.47a80.276 80.276 0 0 0 -23.59 56.95h-40.27a120.463 120.463 0 0 1 35.38-85.43z" fill="#d8ff33"/><path d="m262.76 408.67-113.95.61 110.61-25.89a121.026 121.026 0 0 0 3.34 25.28z" fill="#b0b5ca"/><path d="m235.68 180.17a43.705 43.705 0 0 1 -45.52 74.62l-.39.08c-.01.02-.02.03-.03.05l-.01-.01-.01.03a43.709 43.709 0 0 1 -74.23-46.17l45.91-74.7z" fill="#e04a5d"/><path d="m189.74 254.92 25.76 35.73a45.107 45.107 0 0 0 -6.84-.52 45.617 45.617 0 0 0 -26.16 8.25l7.22-43.44z" fill="#e04a5d"/><path d="m51.77 125.86a28.99 28.99 0 0 1 21.62-34.84l207.347-48.54-2.127-9.09a29 29 0 0 0 -34.84-21.62l-210.38 49.25a28.99 28.99 0 0 0 -21.62 34.84l70.07 299.32a28.99 28.99 0 0 0 34.84 21.62l3.032-.71z" fill="#e2e4ed"/><path d="m353.24 437.14a80.531 80.531 0 0 1 41.95-136.074 80.54 80.54 0 1 0 0 158.248 80.334 80.334 0 0 1 -41.95-22.174z" fill="#f4f8fc"/><g fill="#284268"><path d="m470.288 291.049a5.922 5.922 0 0 0 -.429-.525 5.588 5.588 0 0 0 -.525-.429 126.447 126.447 0 0 0 -78.046-36.221l-.97-180.962a36.373 36.373 0 0 0 -36.328-36.137h-.2l-68.143.366-1.2-5.117a35.038 35.038 0 0 0 -42.047-26.097l-210.375 49.246a35.035 35.035 0 0 0 -26.1 42.05l70.075 299.323a35.028 35.028 0 0 0 34 27.032 35.269 35.269 0 0 0 8.042-.934l31.46-7.365 108.652-.582a126.89 126.89 0 0 0 31.946 54.644 5.738 5.738 0 0 0 .422.517 5.906 5.906 0 0 0 .518.423 126.582 126.582 0 0 0 178.3 0 5.8 5.8 0 0 0 .521-.426 5.69 5.69 0 0 0 .427-.522 126.582 126.582 0 0 0 0-178.287zm-4.823 165.93-20.015-20.014a86.179 86.179 0 0 0 21.069-50.774h28.325a114.36 114.36 0 0 1 -29.379 70.788zm-196.565-48.556a5.97 5.97 0 0 0 -.564-2.305 114.476 114.476 0 0 1 -2.8-19.927h28.325a86.179 86.179 0 0 0 21.069 50.774l-20.015 20.014a114.685 114.685 0 0 1 -26.015-48.556zm105.291-142.884v28.325a86.179 86.179 0 0 0 -50.773 21.069l-20.018-20.015a114.356 114.356 0 0 1 70.791-29.379zm6 189.191a74.539 74.539 0 1 1 74.539-74.539 74.624 74.624 0 0 1 -74.539 74.539zm56.774-139.8a86.179 86.179 0 0 0 -50.774-21.069v-28.322a114.354 114.354 0 0 1 70.788 29.379zm-142.047-11.53 20.015 20.014a86.179 86.179 0 0 0 -21.069 50.773h-28.325a114.354 114.354 0 0 1 29.379-70.787zm28.5 142.046a86.179 86.179 0 0 0 50.774 21.069v28.325a114.352 114.352 0 0 1 -70.788-29.38zm62.774 21.069a86.179 86.179 0 0 0 50.774-21.069l20.014 20.014a114.349 114.349 0 0 1 -70.788 29.38zm80.328-92.328a86.176 86.176 0 0 0 -21.069-50.773l20.013-20.014a114.358 114.358 0 0 1 29.38 70.788zm-112.664-325.412h.133a24.359 24.359 0 0 1 24.329 24.2l.967 180.417a126.2 126.2 0 0 0 -41.323 7.228l-49.508-211.5zm-238.548 362.184a22.994 22.994 0 0 1 -27.629-17.148l-70.068-299.324a23.021 23.021 0 0 1 17.149-27.629l210.377-49.246a23.021 23.021 0 0 1 27.631 17.148l53.948 230.467a127.37 127.37 0 0 0 -35.671 24.873 5.935 5.935 0 0 0 -.521.425 5.767 5.767 0 0 0 -.424.52 126.4 126.4 0 0 0 -36.7 87.59l-105.551 24.707a5.923 5.923 0 0 0 -1.141.267zm86.662-7.959 51.865-12.141q.5 6.009 1.552 11.855z"/><path d="m152.539 281.547a50.11 50.11 0 0 0 28.117-8.651l-4.074 24.5a6 6 0 0 0 9.358 5.9 39.469 39.469 0 0 1 28.665-6.71 6 6 0 0 0 5.766-9.442l-14.871-20.624a49.723 49.723 0 0 0 33.34-91.453l-74.28-46.1a6 6 0 0 0 -8.277 1.957l-45.883 74.676a49.74 49.74 0 0 0 42.142 75.943zm37.86 5.91 2.888-17.36 10.293 14.274a51.2 51.2 0 0 0 -13.18 3.086zm-74.486-47.044a37.453 37.453 0 0 1 4.693-28.5l42.748-69.566 69.159 42.917a37.707 37.707 0 0 1 -39.262 64.385 6.008 6.008 0 0 0 -4.219-.749l-.394.076a6 6 0 0 0 -3.256 1.8c-.043.045-.08.094-.121.14-.112.128-.219.259-.321.4-.086.114-.167.231-.244.351-.008.013-.018.025-.026.038a37.711 37.711 0 0 1 -68.757-11.291z"/><path d="m90.324 127.849-25.924-44.479c-1.22-2.124-4.289-2.531-7.184-1.853-2.819.66-5.387 2.386-5.538 4.832l-3.487 51.362a4.544 4.544 0 0 0 .026.8c.571 2.438 4.544 3.276 7.211 2.652 1.675-.392 2.846-1.229 2.888-2.766l.523-10.81 17.45-4.087 5.266 9.455c.72 1.358 2.14 1.589 3.816 1.2 2.667-.624 5.837-3.214 5.284-5.576a3.388 3.388 0 0 0 -.331-.73zm-31.244-8.517 1.153-24.94 12.1 21.837z"/><path d="m397.207 344.868h-34.03c-3.259 0-6.519 2.3-6.519 4.6v14.858c0 2.588 3.355 4.6 7.381 4.6 3.931 0 7.573-2.013 7.573-4.6v-6.426h17.159v6.71l-23.582 40.84a4.877 4.877 0 0 0 -.67 2.492c0 4.313 4.793 7.573 9.489 7.573 2.013 0 3.451-.575 4.218-2.013l22.431-42.944c1.534-2.877 3.067-6.614 3.067-9.107v-11.982c0-2.3-3.642-4.601-6.517-4.601z"/></g></svg>