<?xml version="1.0" encoding="UTF-8"?>
<svg width="126px" height="126px" viewBox="0 0 126 126" version="1.1" xmlns="http://www.w3.org/2000/svg" xmlns:xlink="http://www.w3.org/1999/xlink">
    <!-- Generator: Sketch 50.2 (55047) - http://www.bohemiancoding.com/sketch -->
    <title>Group 4</title>
    <desc>Created with Sketch.</desc>
    <defs></defs>
    <g id="dashboard" stroke="none" stroke-width="1" fill="none" fill-rule="evenodd">
        <g id="email-reset" transform="translate(-657.000000, -188.000000)">
            <g id="Group-4" transform="translate(657.000000, 188.000000)">
                <g id="Group-3" transform="translate(0.000000, 8.000000)" fill-rule="nonzero">
                    <g id="Group" transform="translate(0.000000, 0.666667)">
                        <polygon id="Shape" fill="#D07C40" points="1.33333333 47.319201 62.6666667 10.6666667 124 47.319201 124 101.333333 1.33333333 101.333333"></polygon>
                        <path d="M14.5185547,0 C52.628394,0 81.2107734,0 100.265693,0 C101.076981,3.06442156 103.811566,3.82301462 106.881304,6.60214387 C109.8387,9.2795669 112.666961,11.3774405 114.064521,12.1599794 C113.577063,19.5358574 113.333333,25.342651 113.333333,29.5803602 C113.333333,38.748629 113.777778,52.501032 114.666667,70.8375694 C114.666667,72.9436458 112.93339,74.6666667 110.814779,74.6666667 L14.5185547,74.6666667 C12.3999429,74.6666667 10.6666667,72.9436458 10.6666667,70.8375694 C9.77777778,52.380255 9.33333333,38.5372691 9.33333333,29.3086119 C9.33333333,23.6464975 9.77777778,15.153326 10.6666667,3.82909722 C10.6669112,1.72326389 12.4001875,0 14.5185547,0 Z" id="Shape" fill="#EFEFEF"></path>
                        <path d="M118.249711,117.333333 L7.08337896,117.333333 C3.92086603,117.333576 1.33333333,114.754916 1.33333333,111.603545 C0.444444444,98.4390787 0,88.5657293 0,81.9834964 C0,74.135312 0.444444444,62.3630354 1.33333333,46.6666667 L62.6666667,73.4054382 L124,46.6666667 L124,111.603545 C123.999757,114.754916 121.412224,117.333333 118.249711,117.333333 Z" id="Shape" fill="#EFC75E"></path>
                        <path d="M124,111.603564 C124,114.754925 121.412462,117.333333 118.249943,117.333333 L7.08339036,117.333333 C3.92087116,117.333576 1.33333333,114.754925 1.33333333,111.603564 L1.33333333,100.144026 L124,46.6666667 C124.888889,61.8857786 125.333333,73.3001126 125.333333,80.9096686 C125.333333,87.7305343 124.888889,97.9618329 124,111.603564 Z" id="Shape" fill="#E8C15B"></path>
                        <path d="M30.7273042,29.3333333 C42.0001442,29.5555556 50.4547742,29.6666667 56.0911942,29.6666667 C62.5759723,29.6666667 72.3031395,29.5555556 85.2726958,29.3333333 C86.7725919,29.3333333 88,28.4332445 88,27.3333333 C88,26.2334222 86.7725919,25.3333333 85.2726958,25.3333333 C72.4102779,25.5555556 62.7634644,25.6666667 56.3322554,25.6666667 C50.6422663,25.6666667 42.1072825,25.5555556 30.7273042,25.3333333 C29.2274081,25.3333333 28,26.2334222 28,27.3333333 C28,28.4332445 29.2270618,29.3333333 30.7273042,29.3333333 Z M85.2726958,33.3333333 C73.1251038,33.5555556 64.0144098,33.6666667 57.9406138,33.6666667 C51.8932117,33.6666667 42.8221085,33.5555556 30.7273042,33.3333333 C29.2274081,33.3333333 28,34.2334222 28,35.3333333 C28,36.4332445 29.2274081,37.3333333 30.7273042,37.3333333 C42.8485023,37.5555556 51.9394009,37.6666667 58,37.6666667 C64.0605991,37.6666667 73.1514977,37.5555556 85.2726958,37.3333333 C86.7725919,37.3333333 88,36.4332445 88,35.3333333 C88,34.2331683 86.7725919,33.3333333 85.2726958,33.3333333 Z M71.9211996,41.3333333 C62.3413879,41.5555556 55.1565291,41.6666667 50.3666233,41.6666667 C46.0062889,41.6666667 39.4657873,41.5555556 30.7451185,41.3333333 C29.2354253,41.3333333 28,42.2334222 28,43.3333333 C28,44.4332445 29.2354253,45.3333333 30.7451185,45.3333333 C39.0065473,45.5555556 45.4248412,45.6666667 50,45.6666667 C54.5751588,45.6666667 61.8823416,45.5555556 71.9215481,45.3333333 C73.4312413,45.3333333 74.6666667,44.4332445 74.6666667,43.3333333 C74.6663182,42.2334222 73.4312413,41.3333333 71.9211996,41.3333333 Z" id="Shape" fill="#D6D9DB"></path>
                    </g>
                </g>
                <g id="Group-2" transform="translate(98.000000, 0.000000)">
                    <circle id="Oval-12" fill="#FE5B64" cx="12" cy="12" r="12"></circle>
                    <polygon id="1" fill="#FFFFFF" points="13.308 15.0285714 11.904 15.0285714 11.904 8.84857143 10.596 10.2045714 9.78 9.35257143 12.084 7.02457143 13.308 7.02457143"></polygon>
                </g>
            </g>
        </g>
    </g>
</svg>