<svg xmlns="http://www.w3.org/2000/svg" xmlns:xlink="http://www.w3.org/1999/xlink" width="551" height="551" viewBox="0 0 551 551">
  <defs>
    <clipPath id="clip-path">
      <rect id="Rectangle_18" data-name="Rectangle 18" width="551" height="551" transform="translate(1086 2051)" fill="#fff" stroke="#707070" stroke-width="1"/>
    </clipPath>
  </defs>
  <g id="Mask_Group_8" data-name="Mask Group 8" transform="translate(-1086 -2051)" clip-path="url(#clip-path)">
    <g id="undraw_segment_analysis_bdn4" transform="translate(1086 2151.06)">
      <ellipse id="Ellipse_5" data-name="Ellipse 5" cx="134.204" cy="17.457" rx="134.204" ry="17.457" transform="translate(0 315.966)" fill="#3f3d56"/>
      <path id="Path_70" data-name="Path 70" d="M540.936,227.463H425.926L365.467,325.31a115.022,115.022,0,0,0,175.468-97.847Z" transform="translate(-51.827 -70.055)" fill="#f2f2f2"/>
      <circle id="Ellipse_6" data-name="Ellipse 6" cx="30.56" cy="30.56" r="30.56" transform="translate(180.958 261.434)" fill="#3f3d56"/>
      <path id="Path_71" data-name="Path 71" d="M205.943,139.707s1.091,10.911-2.182,15.275,8.183,31.642,8.183,31.642l16.366-30.55s-5.455-3.273-2.182-12.548Z" transform="translate(-51.827 -70.055)" fill="#ffb9b9"/>
      <path id="Path_72" data-name="Path 72" d="M205.943,139.707s1.091,10.911-2.182,15.275,8.183,31.642,8.183,31.642l16.366-30.55s-5.455-3.273-2.182-12.548Z" transform="translate(-51.827 -70.055)" opacity="0.1"/>
      <path id="Path_73" data-name="Path 73" d="M255.042,194.807l.546,22.367-20.731,33.278L231.038,237.9l11.456-22.367s-3.819-10.365-2.728-16.366S255.042,194.807,255.042,194.807Z" transform="translate(-51.827 -70.055)" fill="#ffb9b9"/>
      <path id="Path_74" data-name="Path 74" d="M169.937,191.534l-.546,22.367,20.731,33.278,3.819-12.548-11.456-22.367S186.3,201.9,185.212,195.9,169.937,191.534,169.937,191.534Z" transform="translate(-51.827 -70.055)" fill="#ffb9b9"/>
      <path id="Path_75" data-name="Path 75" d="M185.212,227.54,183.03,233a27.409,27.409,0,0,0-8.729,21.276l-6.547,67.648s-4.364,4.91-2.728,10.911c0,0-3.819,20.185-1.637,26.732,0,0-9.274,16.912.546,18s13.093,1.091,14.184-2.728,2.728-18,2.728-18l24-85.1,3.819,52.918s-3.819,14.184-2.728,18-7.638,31.1-3.819,33.824,14.73,3.819,15.275,1.637,1.091-15.821,1.091-15.821,5.455-12,6.547-15.821,2.182-25.1,2.182-25.1l9.82-62.738s2.182-16.912-3.273-20.185l-2.182-9.82Z" transform="translate(-51.827 -70.055)" fill="#2f2e41"/>
      <path id="Path_76" data-name="Path 76" d="M162.3,374.291,160.117,385.2s-11.456,18-.546,18,12-5.455,12-5.455v-4.91s5.455-2.728,5.455-3.273-1.637-13.639-1.637-13.639Z" transform="translate(-51.827 -70.055)" fill="#2f2e41"/>
      <path id="Path_77" data-name="Path 77" d="M215.763,374.291l2.182,10.911s11.456,18,.546,18-12-5.455-12-5.455v-4.91s-5.455-2.728-5.455-3.273,1.637-13.639,1.637-13.639Z" transform="translate(-51.827 -70.055)" fill="#2f2e41"/>
      <circle id="Ellipse_7" data-name="Ellipse 7" cx="14.393" cy="14.393" r="14.393" transform="translate(151.836 52.674)" fill="#ffb9b9"/>
      <path id="Path_78" data-name="Path 78" d="M213.035,175.168s-8.183-13.639-7.638-16.912a15.678,15.678,0,0,0-.026-5.668l-4.884,2.94L180.3,164.8l8.183,27.277s-2.182,6-2.182,10.365,1.091,9.274,0,10.911a6.886,6.886,0,0,0-.546,6.547,6.926,6.926,0,0,1,.546,4.364s-7.638,4.364-3.273,5.455a20.274,20.274,0,0,0,8.729,0s.546-1.637,4.91.546S223.946,233,223.946,233s14.73.546,14.184-1.637,2.728-27.823,2.728-27.823l7.642-36.01-17.457-10.911-5.639-4.978-1.453,7.706Z" transform="translate(-51.827 -70.055)" fill="#d0cde1"/>
      <path id="Path_79" data-name="Path 79" d="M184.121,165.348H180.3s-19.367,23.186-13.911,27,24.277,6.819,24.277,6.819S189.031,165.348,184.121,165.348Z" transform="translate(-51.827 -70.055)" fill="#d0cde1"/>
      <path id="Path_80" data-name="Path 80" d="M243.586,167.53h4.91s13.093,30.55,8.729,31.642-20.185,4.364-20.185,2.728S243.586,167.53,243.586,167.53Z" transform="translate(-51.827 -70.055)" fill="#d0cde1"/>
      <path id="Path_81" data-name="Path 81" d="M203.772,137.045a6.9,6.9,0,0,1-.961-4.865,14.746,14.746,0,0,0,.42-4.385,43.4,43.4,0,0,1,2.523-6.367c1.261-2.282.661-3.243,4.625-3.964s2.342-5.886,12.793-.3a3.065,3.065,0,0,0,3.183,1.2c2.162-.42,2.943,2.583,2.943,2.583s1.442-.841,1.982.36,4.4-.721,4.4,7.388-4.386,15.351-4.386,15.351.322-13.639-6.826-15.021-14.835-5.406-16.7-.24a39.376,39.376,0,0,1-3.991,8.26Z" transform="translate(-51.827 -70.055)" fill="#2f2e41"/>
      <path id="Path_82" data-name="Path 82" d="M422.027,331.81a115.279,115.279,0,0,1-60.746-17.245l-.464-.287.287-.463,60.618-98.106h115.86v.546A115.686,115.686,0,0,1,422.027,331.81ZM362.32,313.923A114.478,114.478,0,0,0,536.49,216.8H422.331Z" transform="translate(-51.827 -70.055)" fill="#3f3d56"/>
      <path id="Path_83" data-name="Path 83" d="M283.138,210.893A114.93,114.93,0,0,0,337.69,308.74l60.458-97.847-99.872-57.07a114.48,114.48,0,0,0-15.138,57.07Z" transform="translate(-51.827 -70.055)" fill="#f2f2f2"/>
      <path id="Path_84" data-name="Path 84" d="M347.126,305.593l-.464-.287a115.61,115.61,0,0,1-39.6-155.652l.271-.473L408.168,206.8ZM307.739,150.67a114.52,114.52,0,0,0,39.033,153.42l59.874-96.9Z" transform="translate(-51.827 -70.055)" fill="#3f3d56"/>
      <path id="Path_85" data-name="Path 85" d="M455.349,81.027,430.555,193.349h115.01a115.043,115.043,0,0,0-90.2-112.319Z" transform="translate(-51.827 -70.055)" fill="#ffb400"/>
      <path id="Path_86" data-name="Path 86" d="M537.583,200.23H421.348L446.4,86.713l.532.117a115.592,115.592,0,0,1,90.645,112.855Zm-114.876-1.091H536.49c-.256-52.934-37.681-99.529-89.255-111.125Z" transform="translate(-51.827 -70.055)" fill="#3f3d56"/>
      <path id="Path_87" data-name="Path 87" d="M405.945,70.055A114.966,114.966,0,0,0,306.073,128l99.872,57.07L430.739,72.743a115.4,115.4,0,0,0-24.794-2.688Z" transform="translate(-51.827 -70.055)" fill="#f2f2f2"/>
      <path id="Path_88" data-name="Path 88" d="M411.191,195.166,310.2,137.457l.271-.474A115.691,115.691,0,0,1,435.729,81.469l.533.117Zm-99.5-58.113,98.753,56.43L434.962,82.419a114.6,114.6,0,0,0-123.269,54.633Z" transform="translate(-51.827 -70.055)" fill="#3f3d56"/>
      <path id="Path_89" data-name="Path 89" d="M418.843,91.992l-.794-.748L477.908,27.72h48.725v1.091H478.38Z" fill="#3f3d56"/>
      <rect id="Rectangle_41" data-name="Rectangle 41" width="57.505" height="1.949" transform="translate(493.495 36.062)" fill="#ffb400"/>
      <rect id="Rectangle_42" data-name="Rectangle 42" width="57.505" height="1.949" transform="translate(493.495 44.347)" fill="#ffb400"/>
      <rect id="Rectangle_43" data-name="Rectangle 43" width="57.505" height="1.949" transform="translate(493.495 52.632)" fill="#ffb400"/>
      <rect id="Rectangle_44" data-name="Rectangle 44" width="57.505" height="1.949" transform="translate(473.855 277.193)" fill="#ffb400"/>
      <rect id="Rectangle_45" data-name="Rectangle 45" width="57.505" height="1.949" transform="translate(473.855 285.478)" fill="#ffb400"/>
      <rect id="Rectangle_46" data-name="Rectangle 46" width="57.505" height="1.949" transform="translate(473.855 293.762)" fill="#ffb400"/>
      <path id="Path_90" data-name="Path 90" d="M506.811,267.413H449.242l-.163-.236-44.735-64.92.9-.619,44.572,64.684h57Z" fill="#3f3d56"/>
      <path id="Path_91" data-name="Path 91" d="M83.011,377.005c-1.817,15.925,7.973,30.119,7.973,30.119s12.737-11.624,14.554-27.549-7.973-30.119-7.973-30.119S84.828,361.081,83.011,377.005Z" transform="translate(-51.827 -70.055)" fill="#2f2e41"/>
      <path id="Path_92" data-name="Path 92" d="M89.954,376.183c6.551,14.628,1.514,31.12,1.514,31.12s-15.657-7.225-22.207-21.854-1.514-31.12-1.514-31.12S83.4,361.555,89.954,376.183Z" transform="translate(-51.827 -70.055)" fill="#ffb400"/>
    </g>
  </g>
</svg>
