<svg height="452pt" viewBox="0 -24 452 451" width="452pt" xmlns="http://www.w3.org/2000/svg"><path d="m446 258.539062v25.371094c-.003906 16.78125-13.609375 30.382813-30.390625 30.390625h-379.21875c-16.78125-.007812-30.386719-13.609375-30.390625-30.390625v-25.371094zm0 0" fill="#f8ec7d"/><path d="m446 36.898438v221.640624h-440v-221.640624c0-16.785157 13.605469-30.394532 30.390625-30.398438h379.21875c16.785156.003906 30.390625 13.613281 30.390625 30.398438zm-30 147.5v-48c0-2.207032-1.789062-4-4-4h-372c-2.210938 0-4 1.792968-4 4v48c0 2.210937 1.789062 4 4 4h372c2.210938 0 4-1.789063 4-4zm0 0" fill="#6fe3ff"/><path d="m416 136.398438v48c0 2.210937-1.789062 4-4 4h-372c-2.210938 0-4-1.789063-4-4v-48c0-2.207032 1.789062-4 4-4h372c2.210938 0 4 1.792968 4 4zm-24.761719 24c0-2.90625-2.359375-5.261719-5.269531-5.257813-2.90625.003906-5.261719 2.363281-5.257812 5.269531 0 2.90625 2.359374 5.261719 5.269531 5.261719 2.90625-.003906 5.261719-2.363281 5.257812-5.273437zm-53.328125 0c-.003906-2.902344-2.363281-5.253907-5.265625-5.25-2.90625.003906-5.257812 2.359374-5.253906 5.265624 0 2.902344 2.355469 5.257813 5.257813 5.257813 1.398437 0 2.738281-.558594 3.722656-1.546875.988281-.988281 1.542968-2.328125 1.539062-3.726562zm-53.320312 0c-.003906-2.90625-2.363282-5.261719-5.269532-5.257813s-5.261718 2.363281-5.261718 5.269531c.003906 2.90625 2.363281 5.261719 5.269531 5.261719 2.910156-.003906 5.265625-2.363281 5.261719-5.273437zm-53.328125 0c-.007813-2.902344-2.363281-5.253907-5.269531-5.25-2.902344.003906-5.253907 2.359374-5.253907 5.265624.003907 2.902344 2.359375 5.257813 5.261719 5.257813 1.398438 0 2.734375-.558594 3.722656-1.546875.988282-.988281 1.539063-2.328125 1.539063-3.726562zm-53.320313 0c-.003906-2.90625-2.363281-5.257813-5.269531-5.257813s-5.261719 2.355469-5.261719 5.261719 2.351563 5.265625 5.261719 5.269531c2.910156 0 5.269531-2.359375 5.269531-5.273437zm-53.332031 0c-.003906-2.902344-2.363281-5.253907-5.265625-5.25-2.902344.003906-5.253906 2.359374-5.253906 5.265624.003906 2.902344 2.355468 5.257813 5.261718 5.257813 1.394532 0 2.734376-.558594 3.722657-1.546875.984375-.988281 1.539062-2.328125 1.535156-3.726562zm-53.320313 0c0-2.90625-2.359374-5.257813-5.265624-5.257813s-5.261719 2.355469-5.261719 5.261719c-.003907 2.90625 2.351562 5.265625 5.257812 5.269531 2.910157 0 5.269531-2.359375 5.269531-5.273437zm0 0" fill="#f8ec7d"/><path d="m385.980469 155.140625c2.90625.003906 5.261719 2.363281 5.257812 5.269531 0 2.90625-2.359375 5.261719-5.269531 5.261719-2.90625-.003906-5.261719-2.363281-5.257812-5.273437.003906-2.90625 2.363281-5.261719 5.269531-5.257813zm0 0" fill="#6fe3ff"/><path d="m332.648438 155.140625c2.910156-.003906 5.269531 2.355469 5.273437 5.261719 0 2.910156-2.359375 5.269531-5.269531 5.269531-2.90625-.003906-5.265625-2.363281-5.261719-5.273437 0-2.902344 2.355469-5.257813 5.257813-5.257813zm0 0" fill="#6fe3ff"/><path d="m279.328125 155.140625c2.910156.003906 5.265625 2.363281 5.261719 5.269531s-2.363282 5.261719-5.269532 5.261719c-2.90625-.003906-5.261718-2.363281-5.261718-5.273437.003906-2.90625 2.363281-5.261719 5.269531-5.257813zm0 0" fill="#6fe3ff"/><path d="m226 155.140625c2.910156-.003906 5.269531 2.355469 5.269531 5.261719 0 2.910156-2.355469 5.269531-5.265625 5.269531-2.910156-.003906-5.265625-2.363281-5.265625-5.273437 0-2.902344 2.355469-5.257813 5.261719-5.257813zm0 0" fill="#6fe3ff"/><path d="m172.671875 155.140625c2.90625-.003906 5.265625 2.355469 5.269531 5.261719 0 2.910156-2.359375 5.269531-5.269531 5.269531-2.90625-.003906-5.265625-2.363281-5.261719-5.273437.003906-2.902344 2.355469-5.253907 5.261719-5.257813zm0 0" fill="#6fe3ff"/><path d="m119.351562 155.140625c2.90625-.003906 5.265626 2.355469 5.269532 5.261719 0 2.910156-2.359375 5.269531-5.269532 5.269531-2.90625-.003906-5.265624-2.363281-5.261718-5.273437 0-2.902344 2.355468-5.257813 5.261718-5.257813zm0 0" fill="#6fe3ff"/><path d="m66.019531 155.140625c2.910157-.003906 5.269531 2.355469 5.269531 5.261719 0 2.910156-2.355468 5.269531-5.265624 5.269531-2.910157-.003906-5.265626-2.363281-5.261719-5.273437.003906-2.902344 2.355469-5.253907 5.257812-5.257813zm0 0" fill="#6fe3ff"/><g fill="#63316d"><path d="m415.609375 320.300781c20.089844-.023437 36.367187-16.300781 36.390625-36.390625v-247.011718c-.019531-20.089844-16.300781-36.375-36.390625-36.398438h-379.21875c-20.089844.023438-36.3710938 16.308594-36.390625 36.398438v247.011718c.0234375 20.089844 16.300781 36.367188 36.390625 36.390625h127.660156v72.019531h-27.941406c-3.3125 0-6 2.6875-6 6s2.6875 6 6 6h185.039063c3.316406 0 6-2.6875 6-6s-2.683594-6-6-6h-33.199219v-72.019531zm-379.21875-307.800781h379.21875c13.46875.019531 24.378906 10.933594 24.390625 24.398438v215.640624h-428v-215.640624c.011719-13.464844 10.921875-24.378907 24.390625-24.398438zm-24.390625 271.410156v-19.371094h428v19.371094c-.015625 13.464844-10.925781 24.375-24.390625 24.390625h-379.21875c-13.464844-.015625-24.375-10.925781-24.390625-24.390625zm263.949219 108.410156h-99.898438v-72.019531h99.898438zm0 0"/><path d="m40 194.398438h372c5.519531-.003907 9.992188-4.476563 10-10v-48c-.007812-5.519532-4.480469-9.992188-10-10h-372c-5.519531.007812-9.992188 4.480468-10 10v48c.007812 5.523437 4.480469 9.996093 10 10zm2-56h368v44h-368zm0 0"/><path d="m119.351562 149.140625c-6.222656-.003906-11.269531 5.039063-11.273437 11.261719 0 6.222656 5.046875 11.269531 11.269531 11.269531 6.222656-.003906 11.265625-5.050781 11.261719-11.273437-.007813-6.214844-5.042969-11.25-11.257813-11.257813zm0 12c-.40625-.003906-.734374-.332031-.730468-.738281 0-.402344.328125-.730469.730468-.730469.40625-.003906.734376.324219.738282.726563 0 .410156-.332032.742187-.738282.742187zm0 0"/><path d="m172.671875 149.140625c-6.222656.003906-11.265625 5.046875-11.261719 11.269531s5.046875 11.261719 11.269532 11.261719c6.222656-.003906 11.261718-5.050781 11.261718-11.273437-.007812-6.21875-5.050781-11.257813-11.269531-11.257813zm0 12c-.40625 0-.738281-.328125-.738281-.734375s.332031-.734375.738281-.734375c.402344 0 .734375.328125.734375.734375s-.332031.734375-.734375.734375zm0 0"/><path d="m226 149.140625c-6.222656-.003906-11.269531 5.039063-11.269531 11.261719s5.042969 11.269531 11.265625 11.269531c6.222656-.003906 11.265625-5.050781 11.265625-11.273437-.007813-6.214844-5.046875-11.25-11.261719-11.257813zm0 12c-.40625-.003906-.730469-.332031-.730469-.738281 0-.402344.328125-.730469.734375-.730469.402344-.003906.734375.324219.734375.726563 0 .410156-.328125.742187-.738281.742187zm0 0"/><path d="m279.328125 149.140625c-6.222656-.003906-11.265625 5.039063-11.269531 11.261719 0 6.222656 5.046875 11.269531 11.269531 11.269531 6.222656-.003906 11.265625-5.050781 11.261719-11.273437-.007813-6.214844-5.046875-11.25-11.261719-11.257813zm0 12c-.402344.003906-.734375-.324219-.738281-.730469s.324218-.738281.730468-.738281c.40625-.003906.738282.320313.738282.726563.003906.195312-.074219.382812-.210938.523437-.136718.140625-.324218.21875-.519531.21875zm0 0"/><path d="m332.648438 149.140625c-6.222657-.003906-11.265626 5.039063-11.269532 11.261719 0 6.222656 5.046875 11.269531 11.269532 11.269531 6.222656-.003906 11.265624-5.050781 11.261718-11.273437-.007812-6.214844-5.042968-11.25-11.261718-11.257813zm0 12c-.402344-.003906-.730469-.332031-.726563-.738281 0-.402344.328125-.730469.730469-.730469.40625-.003906.734375.324219.738281.726563 0 .410156-.332031.742187-.742187.742187zm0 0"/><path d="m66.019531 149.140625c-6.222656.003906-11.261719 5.046875-11.257812 11.269531 0 6.222656 5.046875 11.261719 11.269531 11.261719 6.21875-.003906 11.261719-5.050781 11.257812-11.273437-.003906-6.21875-5.050781-11.257813-11.269531-11.257813zm0 12c-.40625 0-.734375-.328125-.734375-.734375s.328125-.734375.734375-.734375.734375.328125.734375.734375-.328125.734375-.734375.734375zm0 0"/><path d="m385.980469 149.140625c-6.222657-.003906-11.269531 5.039063-11.269531 11.261719s5.042968 11.269531 11.265624 11.269531c6.222657-.003906 11.265626-5.050781 11.261719-11.273437-.007812-6.214844-5.042969-11.25-11.257812-11.257813zm0 12c-.40625.003906-.738281-.324219-.742188-.730469 0-.40625.324219-.738281.730469-.738281.40625-.003906.738281.320313.742188.726563 0 .195312-.074219.382812-.210938.523437s-.324219.21875-.519531.21875zm0 0"/></g></svg>