<svg xmlns="http://www.w3.org/2000/svg" xmlns:xlink="http://www.w3.org/1999/xlink" width="551" height="551" viewBox="0 0 551 551">
  <defs>
    <clipPath id="clip-path">
      <rect id="Rectangle_19" data-name="Rectangle 19" width="551" height="551" transform="translate(283 2875)" fill="#fff" stroke="#707070" stroke-width="1"/>
    </clipPath>
  </defs>
  <g id="Mask_Group_9" data-name="Mask Group 9" transform="translate(-283 -2875)" clip-path="url(#clip-path)">
    <g id="undraw_chore_list_iof3" transform="translate(283 2970.221)">
      <circle id="Ellipse_8" data-name="Ellipse 8" cx="80.873" cy="80.873" r="80.873" transform="translate(83.054 195.337)" fill="#f2f2f2"/>
      <rect id="Rectangle_47" data-name="Rectangle 47" width="537.391" height="1.25" transform="translate(13.609 357.156)" fill="#2f2e41"/>
      <path id="Path_93" data-name="Path 93" d="M219.648,347.429c0,60.437-35.93,81.542-80.248,81.542-1.032,0-2.058-.011-3.079-.039-2.052-.045-4.088-.134-6.1-.279-40-2.828-71.079-25.02-71.079-81.224,0-58.161,74.314-131.555,79.919-137a.017.017,0,0,1,.011-.006c.212-.212.323-.318.323-.318S219.648,286.986,219.648,347.429Z" transform="translate(-59.146 -70.705)" fill="#3f3d56"/>
      <path id="Path_94" data-name="Path 94" d="M136.471,419.723l29.354-41.011L136.4,424.224l-.078,4.707c-2.052-.045-4.088-.134-6.1-.279l3.162-60.465-.022-.469.056-.089.3-5.711-29.5-45.629,29.588,41.345.073,1.21,2.393-45.685-25.255-47.146,25.561,39.12,2.488-94.71.011-.323v.318l-.413,74.687L163.8,255.5l-25.243,36.041-.664,40.9,23.475-39.254-23.576,45.278-.368,22.739L171.5,306.563,137.3,369.141Z" transform="translate(-59.146 -70.705)" fill="#f2f2f2"/>
      <path id="Path_95" data-name="Path 95" d="M507.242,183.218l-11.155-11.713s-12.27-18.406-21.194-13.386,12.828,16.732,12.828,16.732l11.155,18.406Z" transform="translate(-59.146 -70.705)" fill="#a0616a"/>
      <path id="Path_96" data-name="Path 96" d="M542.38,410.219s8.366,16.175,2.231,17.29-36.253,2.789-36.811,1.116-5.02-7.251-1.673-9.482,16.732-3.9,16.732-3.9l4.462-4.462Z" transform="translate(-59.146 -70.705)" fill="#2f2e41"/>
      <path id="Path_97" data-name="Path 97" d="M546.842,252.378s17.848,22.31,3.346,45.177l-3.346,38.484s6.135,52.986-1.673,70.833l-1.115,6.135H524.532l5.02-46.85s-.558-5.577-2.231-6.693-29-61.352-29-61.352,4.462-8.366,2.789-10.039,1.673-35.138,3.346-36.253S546.842,252.378,546.842,252.378Z" transform="translate(-59.146 -70.705)" fill="#2f2e41"/>
      <path id="Path_98" data-name="Path 98" d="M455.9,334.494l-2.231,12.828,21.752-1.115-2.789-13.944Z" fill="#a0616a"/>
      <circle id="Ellipse_9" data-name="Ellipse 9" cx="16.732" cy="16.732" r="16.732" transform="translate(443.077 73.47)" fill="#a0616a"/>
      <path id="Path_99" data-name="Path 99" d="M534.014,163.7l1.673,20.079-17.848,8.366s3.068-18.684.837-23.7Z" transform="translate(-59.146 -70.705)" fill="#a0616a"/>
      <path id="Path_100" data-name="Path 100" d="M515.608,191.026l1.673-6.693,22.867-8.366s2.231,0,1.673,3.9-.558,3.346-.558,3.346,7.808,3.346,8.366,8.924,9.482,7.251,8.924,15.617-3.346,12.828-3.346,12.828,2.789,6.693-1.673,10.6c0,0-4.462,7.808-2.231,13.386s5.02,15.059-1.115,13.386-48.524-4.462-48.524-4.462-6.135-22.867.558-31.234c0,0,0-5.02,5.02-15.059S515.608,191.026,515.608,191.026Z" transform="translate(-59.146 -70.705)" fill="#575a89"/>
      <path id="Path_101" data-name="Path 101" d="M545.169,254.051s-7.251,30.676-16.175,34.022c0,0-1.673,22.31-11.155,21.194s0-21.194,0-21.194l10.6-38.484Z" transform="translate(-59.146 -70.705)" fill="#a0616a"/>
      <path id="Path_102" data-name="Path 102" d="M516.724,192.7s-8.366-13.386-10.6-11.155-13.386,8.924-12.828,13.386,5.577,4.462,5.577,4.462l11.713,8.924Z" transform="translate(-59.146 -70.705)" fill="#575a89"/>
      <path id="Path_103" data-name="Path 103" d="M505.011,292.535l-6.693,4.811-4.462,47.617s16.175,64.7,20.637,65.256,22.867.558,22.31-1.115-3.346-8.366-3.346-10.039-5.817-15.054-5.817-15.054l-7.569-31.238,1.673-24.541Z" transform="translate(-59.146 -70.705)" fill="#2f2e41"/>
      <path id="Path_104" data-name="Path 104" d="M513.377,413.566s23.425-7.251,24.541-5.577,8.556,18.537-1.857,20.423-47.782,5.233-47.782.213,1.116-8.366,4.462-8.366,18.406-7.251,19.521-8.924S513.377,413.566,513.377,413.566Z" transform="translate(-59.146 -70.705)" fill="#2f2e41"/>
      <path id="Path_105" data-name="Path 105" d="M534.821,162.008a1.652,1.652,0,0,0-2.235-2.208l-.029.017a2.9,2.9,0,0,0-1.361,2.894c-2.011-2.007-.529-6.031-2.7-7.862-1.006-.847-2.639-1.034-3.155-2.243-.3-.7-.1-1.539-.362-2.257-.394-1.066-1.652-1.512-2.776-1.68-3.536-.527-7.112.37-10.575,1.26a7.416,7.416,0,0,0-3.539,1.623c-.977.981-1.317,2.407-1.916,3.656s-4.527,1.136-5.9.959c-.477-1.356,3.049-1.458,3.336-2.867.787-3.85-1.953-7.944-.609-11.637.81-2.225,2.925-3.7,5.055-4.733a26.832,26.832,0,0,1,18.985-1.62,4.215,4.215,0,0,1,1.753.848c.811.757.961,1.972,1.5,2.94,1.23,2.207,4.147,2.732,6.114,4.317,2.979,2.4,3.315,6.738,3.411,10.563a13,13,0,0,1-.706,5.686c-.789,1.758-2.659,3.191-4.55,2.822C534.651,162.343,534.737,162.18,534.821,162.008Z" transform="translate(-59.146 -70.705)" fill="#2f2e41"/>
      <path id="Path_106" data-name="Path 106" d="M531.91,198.135a11.884,11.884,0,0,1,14.506.737c3.844,3.267,7.979,7.947,7.676,12.791-.558,8.924-3.9,45.735-8.366,46.293s-20.637-3.9-20.637-6.693,3.9-6.135,3.9-6.135l-4.74-28.442a18.8,18.8,0,0,1,7.406-18.372Z" transform="translate(-59.146 -70.705)" fill="#575a89"/>
      <path id="Path_107" data-name="Path 107" d="M469.727,70.706h-134.2A28.529,28.529,0,0,0,307.7,92.96L239.886,393.733a23.057,23.057,0,0,0,21.358,28.1l137.96,6.8a30.461,30.461,0,0,0,31.474-25l38.466-212.65,2.862.818,7.36-40.305-2.946-.736L487.157,91.4a17.565,17.565,0,0,0-17.43-20.691Z" transform="translate(-59.146 -70.705)" fill="#3f3d56"/>
      <path id="Path_108" data-name="Path 108" d="M353.193,77.19H337.528A19.715,19.715,0,0,0,318.265,92.7L253.178,391.021a12.216,12.216,0,0,0,11.137,14.794l137.514,9.012a15.821,15.821,0,0,0,16.605-12.983L473.973,93.5A13.858,13.858,0,0,0,460.335,77.19H445.474a6.54,6.54,0,0,0-6.315,4.84h0a5.774,5.774,0,0,1-5.575,4.273H363.033a9.869,9.869,0,0,1-9.84-9.112Z" transform="translate(-59.146 -70.705)" fill="#ffb400"/>
      <rect id="Rectangle_48" data-name="Rectangle 48" width="142.294" height="0.701" transform="translate(250.237 83.59)" fill="#2f2e41"/>
      <rect id="Rectangle_49" data-name="Rectangle 49" width="143.696" height="0.701" transform="translate(244.63 106.371)" fill="#2f2e41"/>
      <path id="Path_109" data-name="Path 109" d="M383.546,82.48l-3.234-4.311.561-.42,2.794,3.725,10.768-8.81.443.543Z" fill="#2f2e41"/>
      <path id="Path_110" data-name="Path 110" d="M364.97,184.119l-3.233-4.311.561-.421,2.795,3.726,10.767-8.81.444.543Z" fill="#2f2e41"/>
      <rect id="Rectangle_50" data-name="Rectangle 50" width="0.701" height="148.988" transform="translate(228.851 184.876) rotate(-88.787)" fill="#2f2e41"/>
      <rect id="Rectangle_51" data-name="Rectangle 51" width="0.701" height="151.797" transform="matrix(0.023, -1, 1, 0.023, 224.294, 205.558)" fill="#2f2e41"/>
      <path id="Path_111" data-name="Path 111" d="M376.5,335.318a33.3,33.3,0,1,1-66.591,0c0-.417.007-.831.025-1.244a33.292,33.292,0,1,1,66.572,1.244Z" transform="translate(-59.146 -70.705)" opacity="0.1"/>
      <path id="Path_112" data-name="Path 112" d="M373.345,348.285c0,.417-.007.831-.025,1.244a33.3,33.3,0,0,1-63.412-14.212c0-.417.007-.831.025-1.244a33.3,33.3,0,0,1,63.412,14.212Z" transform="translate(-59.146 -70.705)" opacity="0.1"/>
      <path id="Path_113" data-name="Path 113" d="M277.319,273.773l-11.836-15.782,2.8-2.1,9.643,12.857,37.964-31.061,2.219,2.713Z" fill="#f2f2f2"/>
    </g>
  </g>
</svg>
