<svg height="492pt" viewBox="-48 0 492 492.00343" width="492pt" xmlns="http://www.w3.org/2000/svg"><path d="m390.960938 141.410156-36.609376 5.320313-16.371093 33.179687-16.367188-33.179687-36.613281-5.320313 26.492188-25.820312-6.25-36.460938 32.738281 17.222656 32.742187-17.222656-6.25 36.460938zm0 0" fill="#f8ec7d"/><path d="m237.3125 316.710938c3.921875-3.175782 8.785156-4.960938 13.828125-5.082032 3.621094 4.898438 9.296875 7.847656 15.386719 7.996094 6.085937.148438 11.898437-2.519531 15.753906-7.234375.199219-.257813.417969-.503906.648438-.730469 12.09375.75 21.519531 10.773438 21.523437 22.890625v22.929688h-62.710937v-26.199219c.007812-5.191406-1.535157-10.265625-4.429688-14.570312zm0 0" fill="#e2d574"/><path d="m266.429688 242.949219h.371093c11.152344 0 20.191407 9.039062 20.191407 20.191406v10.558594c0 11.152343-9.039063 20.191406-20.191407 20.191406h-.371093c-11.148438 0-20.1875-9.039063-20.1875-20.191406v-10.558594c0-11.152344 9.039062-20.191406 20.1875-20.191406zm0 0" fill="#e2d574"/><path d="m251.460938 68.28125-36.609376 5.320312-16.371093 33.167969-16.367188-33.167969-36.613281-5.320312 26.492188-25.820312-6.25-36.460938 32.738281 17.210938 32.742187-17.210938-6.25 36.460938zm0 0" fill="#f8ec7d"/><path d="m159.640625 316.839844c4.722656-7.144532 12.640625-11.527344 21.199219-11.738282 4.136718 5.589844 10.625 8.960938 17.578125 9.132813 6.957031.167969 13.597656-2.878906 18.003906-8.265625.222656-.292969.472656-.570312.738281-.828125 13.8125.855469 24.574219 12.304687 24.582032 26.140625v37.839844h-86.429688v-37.839844c-.011719-5.136719 1.496094-10.160156 4.328125-14.441406zm0 0" fill="#f8ec7d"/><path d="m198.3125 286.269531c-12.738281.003907-23.0625-10.320312-23.0625-23.058593v-12.070313c0-12.738281 10.324219-23.0625 23.0625-23.058594h.429688c12.738281-.003906 23.066406 10.320313 23.070312 23.058594v12.070313c-.003906 12.738281-10.332031 23.0625-23.070312 23.058593zm0 0" fill="#f8ec7d"/><path d="m195.851562 486s-148.75-43.5-148.75-174.257812v-87.820313l.988282-.421875c26.675781-11.476562 52.648437-24.519531 77.78125-39.070312 25.132812-14.550782 49.378906-30.582032 72.609375-48.007813 46.503906 34.878906 96.988281 64.109375 150.390625 87.078125l.992187.421875v87.820313c0 130.757812-154.011719 174.257812-154.011719 174.257812zm-125.328124-174.339844c0 110.53125 125.738281 147.300782 125.738281 147.300782s130.179687-36.769532 130.179687-147.300782v-74.230468l-.839844-.359376c-45.136718-19.414062-87.808593-44.121093-127.121093-73.601562-19.632813 14.726562-40.128907 28.273438-61.367188 40.570312-21.246093 12.300782-43.203125 23.328126-65.75 33.03125l-.839843.359376zm0 0" fill="#e48e66"/><path d="m246.242188 273.699219c0 11.152343 9.039062 20.191406 20.1875 20.191406h.371093c11.152344 0 20.191407-9.039063 20.191407-20.191406v-10.558594c0-11.152344-9.039063-20.191406-20.191407-20.191406h-.371093c-11.148438 0-20.1875 9.039062-20.1875 20.191406zm-70.992188-10.488281c0 12.738281 10.324219 23.0625 23.0625 23.058593h.429688c12.738281.003907 23.066406-10.320312 23.070312-23.058593v-12.070313c-.003906-12.738281-10.332031-23.0625-23.070312-23.058594h-.429688c-12.738281-.003906-23.0625 10.320313-23.0625 23.058594zm-16.507812 52.800781c-3.53125-2.574219-7.726563-4.085938-12.089844-4.351563-.234375.226563-.445313.472656-.640625.730469-3.855469 4.710937-9.671875 7.382813-15.761719 7.234375-6.085938-.148438-11.765625-3.097656-15.386719-7.996094-12.433593.316406-22.347656 10.484375-22.351562 22.921875v22.929688h62.800781v11.640625h86.429688v-11.640625h62.710937v-22.929688c-.003906-12.117187-9.429687-22.140625-21.523437-22.890625-.230469.226563-.449219.472656-.648438.730469-3.855469 4.714844-9.667969 7.382813-15.753906 7.234375-6.089844-.148438-11.765625-3.097656-15.386719-7.996094-5.042969.121094-9.90625 1.90625-13.828125 5.082032-4.542969-6.792969-11.996094-11.070313-20.152344-11.570313-.265625.257813-.515625.535156-.738281.828125-4.40625 5.386719-11.046875 8.433594-18.003906 8.265625-6.953125-.171875-13.441407-3.542969-17.578125-9.132813-8.558594.210938-16.476563 4.59375-21.199219 11.738282zm37.519531 142.949219s-125.738281-36.769532-125.738281-147.300782v-74.230468l.839843-.359376c22.546875-9.703124 44.503907-20.730468 65.75-33.03125 21.238281-12.296874 41.734375-25.84375 61.367188-40.570312 39.3125 29.480469 81.984375 54.1875 127.121093 73.601562l.839844.359376v74.230468c0 110.53125-130.179687 147.300782-130.179687 147.300782zm-86.289063-185.261719c0 11.152343 9.039063 20.191406 20.1875 20.191406h.371094c11.152344 0 20.191406-9.039063 20.191406-20.191406v-10.558594c0-11.152344-9.039062-20.191406-20.191406-20.191406h-.371094c-11.148437 0-20.1875 9.039062-20.1875 20.191406zm0 0" fill="#6fe3ff"/><path d="m92.511719 334.550781c.003906-12.4375 9.917969-22.605469 22.351562-22.921875 3.621094 4.898438 9.300781 7.847656 15.386719 7.996094 6.089844.148438 11.90625-2.523438 15.761719-7.234375.195312-.257813.40625-.503906.640625-.730469 4.363281.265625 8.558594 1.777344 12.089844 4.351563l.898437.828125c-2.832031 4.28125-4.339844 9.304687-4.328125 14.441406v26.199219h-62.800781zm0 0" fill="#e2d574"/><path d="m130.160156 242.949219h.371094c11.152344 0 20.191406 9.039062 20.191406 20.191406v10.558594c0 11.152343-9.039062 20.191406-20.191406 20.191406h-.371094c-11.148437 0-20.1875-9.039063-20.1875-20.191406v-10.558594c0-11.152344 9.039063-20.191406 20.1875-20.191406zm0 0" fill="#e2d574"/><path d="m111.960938 141.410156-36.609376 5.320313-16.371093 33.179687-16.367188-33.179687-36.613281-5.320313 26.492188-25.820312-6.25-36.460938 32.738281 17.222656 32.742187-17.222656-6.25 36.460938zm0 0" fill="#f8ec7d"/><g fill="#63316d"><path d="m139.796875 70.136719c.703125 2.171875 2.582031 3.753906 4.839844 4.082031l33.492187 4.867188 14.972656 30.339843c1.011719 2.046875 3.097657 3.34375 5.378907 3.34375 2.285156 0 4.371093-1.296875 5.382812-3.34375l14.972657-30.339843 33.488281-4.867188c2.261719-.328125 4.140625-1.910156 4.84375-4.085938.707031-2.171874.117187-4.554687-1.519531-6.148437l-24.230469-23.617187 5.71875-33.351563c.386719-2.253906-.539063-4.527344-2.386719-5.871094-1.847656-1.339843-4.300781-1.519531-6.320312-.457031l-29.949219 15.746094-29.945313-15.746094c-2.023437-1.0625-4.472656-.882812-6.320312.457031-1.847656 1.34375-2.773438 3.617188-2.386719 5.871094l5.714844 33.351563-24.230469 23.617187c-1.636719 1.59375-2.222656 3.980469-1.515625 6.152344zm36.382813-23.378907c1.417968-1.378906 2.0625-3.363281 1.726562-5.3125l-4.199219-24.476562 21.980469 11.550781c1.746094.921875 3.835938.921875 5.585938 0l21.976562-11.550781-4.199219 24.476562c-.332031 1.949219.3125 3.933594 1.726563 5.3125l17.785156 17.332032-24.578125 3.574218c-1.957031.28125-3.644531 1.507813-4.519531 3.28125l-10.984375 22.265626-10.988281-22.265626c-.875-1.773437-2.5625-3-4.519532-3.28125l-24.578125-3.574218zm0 0"/><path d="m.296875 143.265625c.703125 2.171875 2.582031 3.753906 4.839844 4.082031l33.488281 4.867188 14.976562 30.347656c1.007813 2.050781 3.09375 3.347656 5.378907 3.347656 2.285156 0 4.371093-1.296875 5.382812-3.347656l14.972657-30.347656 33.488281-4.867188c2.261719-.328125 4.140625-1.910156 4.84375-4.082031.707031-2.171875.117187-4.558594-1.519531-6.152344l-24.230469-23.613281 5.71875-33.351562c.386719-2.25-.539063-4.527344-2.386719-5.867188-1.851562-1.34375-4.300781-1.519531-6.320312-.457031l-29.949219 15.746093-29.945313-15.75c-2.023437-1.0625-4.472656-.886718-6.320312.453126-1.847656 1.34375-2.773438 3.621093-2.386719 5.871093l5.714844 33.355469-24.230469 23.613281c-1.632812 1.59375-2.222656 3.980469-1.515625 6.152344zm36.382813-23.378906c1.417968-1.378907 2.0625-3.363281 1.726562-5.308594l-4.199219-24.476563 21.980469 11.558594c1.746094.917969 3.835938.917969 5.585938 0l21.976562-11.558594-4.199219 24.476563c-.332031 1.945313.3125 3.929687 1.726563 5.308594l17.785156 17.335937-24.578125 3.570313c-1.957031.285156-3.644531 1.511719-4.519531 3.285156l-10.984375 22.273437-10.988281-22.273437c-.875-1.773437-2.5625-3-4.519532-3.285156l-24.578125-3.570313zm0 0"/><path d="m279.296875 143.265625c.703125 2.171875 2.582031 3.753906 4.839844 4.082031l33.488281 4.867188 14.976562 30.347656c1.007813 2.050781 3.09375 3.347656 5.378907 3.347656 2.285156 0 4.371093-1.296875 5.382812-3.347656l14.972657-30.347656 33.488281-4.867188c2.261719-.328125 4.140625-1.910156 4.84375-4.082031.707031-2.171875.117187-4.558594-1.519531-6.152344l-24.230469-23.613281 5.71875-33.351562c.386719-2.25-.539063-4.527344-2.386719-5.867188-1.851562-1.34375-4.300781-1.519531-6.320312-.457031l-29.949219 15.746093-29.945313-15.75c-2.023437-1.0625-4.472656-.886718-6.320312.453126-1.847656 1.34375-2.773438 3.621093-2.386719 5.871093l5.714844 33.351563-24.230469 23.617187c-1.632812 1.59375-2.222656 3.980469-1.515625 6.152344zm36.382813-23.378906c1.417968-1.378907 2.0625-3.363281 1.726562-5.308594l-4.199219-24.476563 21.980469 11.558594c1.746094.917969 3.835938.917969 5.585938 0l21.976562-11.558594-4.199219 24.476563c-.332031 1.945313.3125 3.929687 1.726563 5.308594l17.785156 17.335937-24.578125 3.570313c-1.957031.285156-3.644531 1.511719-4.519531 3.285156l-10.984375 22.273437-10.988281-22.273437c-.875-1.773437-2.5625-3-4.519532-3.285156l-24.578125-3.570313zm0 0"/><path d="m198.3125 292.269531h.429688c16.042968-.015625 29.046874-13.015625 29.070312-29.058593v-12.070313c-.023438-16.042969-13.027344-29.042969-29.070312-29.058594h-.429688c-16.042969.015625-29.042969 13.015625-29.0625 29.058594v12.070313c.019531 16.042968 13.019531 29.042968 29.0625 29.058593zm-17.0625-41.128906c.011719-9.417969 7.644531-17.050781 17.0625-17.058594h.429688c9.417968.007813 17.054687 7.636719 17.070312 17.058594v12.070313c-.015625 9.417968-7.652344 17.050781-17.070312 17.058593h-.429688c-9.417969-.011719-17.050781-7.640625-17.0625-17.058593zm0 0"/><path d="m266.429688 299.890625h.371093c14.457031-.015625 26.175781-11.734375 26.191407-26.191406v-10.558594c-.015626-14.457031-11.734376-26.171875-26.191407-26.191406h-.371093c-14.457032.019531-26.171876 11.734375-26.1875 26.191406v10.558594c.015624 14.457031 11.730468 26.175781 26.1875 26.191406zm-14.1875-36.75c.007812-7.832031 6.355468-14.183594 14.1875-14.191406h.371093c7.835938.007812 14.183594 6.359375 14.191407 14.191406v10.558594c-.007813 7.835937-6.355469 14.183593-14.191407 14.191406h-.371093c-7.832032-.007813-14.179688-6.355469-14.1875-14.191406zm0 0"/><path d="m130.160156 299.890625h.371094c14.457031-.015625 26.171875-11.734375 26.191406-26.191406v-10.558594c-.019531-14.457031-11.734375-26.171875-26.191406-26.191406h-.371094c-14.457031.019531-26.171875 11.734375-26.1875 26.191406v10.558594c.015625 14.457031 11.730469 26.175781 26.1875 26.191406zm-14.1875-36.75c.007813-7.832031 6.355469-14.183594 14.1875-14.191406h.371094c7.832031.007812 14.183594 6.359375 14.191406 14.191406v10.558594c-.011718 7.835937-6.359375 14.183593-14.191406 14.191406h-.371094c-7.832031-.007813-14.179687-6.355469-14.1875-14.191406zm0 0"/><path d="m149.3125 363.480469v5.640625c0 3.3125 2.683594 6 6 6h86.429688c3.3125 0 6-2.6875 6-6v-5.640625h56.710937c3.3125 0 6-2.6875 6-6v-22.929688c-.015625-15.285156-11.902344-27.925781-27.15625-28.878906-.121094-.007813-.246094-.011719-.367187-.011719-2.808594 0-4.261719 1.714844-5.289063 2.925782-2.679687 3.28125-6.726563 5.140624-10.964844 5.039062-4.234375-.101562-8.1875-2.152344-10.707031-5.5625-1.164062-1.570312-3.019531-2.480469-4.976562-2.429688-4.328126.101563-8.578126 1.1875-12.429688 3.167969-5.582031-5.699219-13.074219-9.136719-21.035156-9.652343-.121094-.003907-.242188-.007813-.367188-.007813-2.863281 0-4.363281 1.800781-5.378906 3.027344-3.234375 3.953125-8.109375 6.191406-13.214844 6.066406-5.105468-.125-9.863281-2.597656-12.902344-6.703125-1.167968-1.566406-3.019531-2.46875-4.972656-2.429688-8.398437.21875-16.378906 3.703126-22.242187 9.714844-3.550781-1.824218-7.441407-2.894531-11.425781-3.144531-.121094-.007813-.246094-.011719-.371094-.011719-2.128906.066406-4.097656 1.152344-5.28125 2.925782-2.609375 3.195312-6.519532 5.050781-10.648438 5.042968-4.359375.023438-8.460937-2.046875-11.035156-5.566406-1.164062-1.570312-3.019531-2.476562-4.976562-2.429688-15.726563.304688-28.289063 13.1875-28.199219 28.917969v22.929688c0 3.3125 2.683593 6 6 6zm117.6875-37.851563c6.863281.015625 13.441406-2.722656 18.269531-7.597656 7.707031 1.761719 13.175781 8.613281 13.183594 16.519531v16.929688h-50.710937v-20.199219c0-4.25-.847657-8.457031-2.488282-12.378906 1.082032-.449219 2.207032-.785156 3.359375-1 4.820313 4.972656 11.460938 7.761718 18.386719 7.726562zm-88.738281-14.277344c5.371093 5.652344 12.820312 8.863282 20.617187 8.890626 7.792969.023437 15.261719-3.140626 20.667969-8.757813 5.230469 1.039063 9.832031 4.125 12.78125 8.570313v.003906c2.230469 3.316406 3.417969 7.226562 3.410156 11.222656v31.839844h-74.425781v-31.839844c-.007812-3.957031 1.148438-7.828125 3.328125-11.125l.011719-.015625c.015625-.023437.039062-.046875.050781-.070313 3.121094-4.65625 8.027344-7.8125 13.558594-8.71875zm-79.75 23.203126c.054687-8.136719 5.839843-15.101563 13.828125-16.640626 4.824218 4.914063 11.414062 7.695313 18.296875 7.71875 6.886719.023438 13.496093-2.710937 18.351562-7.59375.957031.222657 1.890625.523438 2.792969.90625-1.628906 3.910157-2.46875 8.101563-2.46875 12.339844v20.199219h-50.800781zm0 0"/><path d="m45.75 217.976562-.992188.417969c-2.214843.941407-3.65625 3.117188-3.65625 5.527344v87.820313c-.207031 30.226562 8.164063 59.898437 24.144532 85.558593 12.746094 20.53125 30.472656 39.1875 52.6875 55.449219 37.605468 27.523438 74.675781 38.554688 76.234375 39.011719 1.082031.316406 2.230469.320312 3.316406.015625 1.609375-.457032 39.9375-11.472656 78.835937-38.96875 22.988282-16.253906 41.332032-34.898438 54.523438-55.429688 16.503906-25.5 25.199219-55.265625 25.019531-85.636718v-87.820313c0-2.410156-1.441406-4.585937-3.660156-5.527344l-.960937-.40625c-52.960938-22.789062-103.03125-51.777343-149.160157-86.367187-2.132812-1.601563-5.066406-1.601563-7.199219 0-23.046874 17.277344-47.09375 33.175781-72.015624 47.617187-24.921876 14.417969-50.671876 27.355469-77.117188 38.738281zm152.730469-74.078124c45.121093 33.410156 93.894531 61.582031 145.382812 83.972656v83.871094c.167969 28.003906-7.828125 55.453124-23.011719 78.988281-12.308593 19.199219-29.527343 36.726562-51.179687 52.078125-22.65625 15.851562-47.519531 28.289062-73.789063 36.914062-25.429687-8.664062-49.410156-21.089844-71.148437-36.867187-20.902344-15.34375-37.519531-32.859375-49.402344-52.058594-14.722656-23.726563-22.429687-51.132813-22.230469-79.054687v-83.871094c25.96875-11.296875 51.269532-24.066406 75.78125-38.25 24.035157-13.925782 47.273438-29.191406 69.597657-45.722656zm0 0"/><path d="m129.847656 431.601562c31.917969 23.359376 63.398438 32.730469 64.730469 33.117188 1.082031.316406 2.230469.320312 3.3125.015625 1.371094-.386719 33.917969-9.742187 66.925781-33.078125 44.238282-31.277344 67.625-72.769531 67.625-120v-74.226562c0-2.402344-1.433594-4.570313-3.640625-5.515626l-.828125-.355468c-44.699218-19.234375-86.957031-43.699219-125.890625-72.886719-2.132812-1.601563-5.066406-1.601563-7.199219 0-19.449218 14.578125-39.746093 27.996094-60.777343 40.175781-21.039063 12.175782-42.777344 23.09375-65.101563 32.707032l-.839844.359374c-2.207031.945313-3.640624 3.117188-3.640624 5.515626v74.230468c0 47.183594 22.585937 88.660156 65.324218 119.941406zm-53.324218-190.226562c21.789062-9.503906 43.023437-20.238281 63.597656-32.140625 20.148437-11.671875 39.632812-24.453125 58.359375-38.285156 37.882812 27.976562 78.792969 51.601562 121.960937 70.425781v70.285156c0 28.347656-8.835937 53.886719-26.332031 76.335938-1.246094-2.484375-4.035156-3.792969-6.742187-3.15625-2.707032.636718-4.621094 3.050781-4.625 5.832031v9.257813c0 .308593.027343.613281.078124.917968-7.589843 7.652344-15.839843 14.617188-24.65625 20.816406-19 13.296876-39.84375 23.746094-61.871093 31.015626-21.3125-7.300782-41.414063-17.738282-59.640625-30.972657-8.136719-5.933593-15.761719-12.542969-22.789063-19.753906.234375-.648437.355469-1.332031.359375-2.023437v-9.257813c-.007812-2.945313-2.152344-5.449219-5.058594-5.914063-2.910156-.460937-5.722656 1.257813-6.640624 4.054688-17.097657-22.0625-26.253907-49.242188-26-77.152344zm0 0"/><path d="m198.480469 384.671875c-3.3125 0-6 2.683594-6 6v9.257813c0 3.3125 2.6875 6 6 6 3.316406 0 6-2.6875 6-6v-9.257813c0-3.316406-2.683594-6-6-6zm0 0"/><path d="m228.570312 384.671875c-3.3125 0-6 2.683594-6 6v9.257813c0 3.3125 2.6875 6 6 6 3.316407 0 6-2.6875 6-6v-9.257813c0-3.316406-2.683593-6-6-6zm0 0"/><path d="m258.652344 384.671875c-3.316406 0-6 2.683594-6 6v9.257813c0 3.3125 2.683594 6 6 6 3.3125 0 6-2.6875 6-6v-9.257813c0-3.316406-2.6875-6-6-6zm0 0"/><path d="m168.390625 384.671875c-3.3125 0-6 2.683594-6 6v9.257813c0 3.3125 2.6875 6 6 6 3.316406 0 6-2.6875 6-6v-9.257813c0-3.316406-2.683594-6-6-6zm0 0"/><path d="m138.3125 384.671875c-3.316406 0-6 2.683594-6 6v9.257813c0 3.3125 2.683594 6 6 6 3.3125 0 6-2.6875 6-6v-9.257813c0-3.316406-2.6875-6-6-6zm0 0"/></g></svg>