<svg id="Capa_1" enable-background="new 0 0 512 512" height="512" viewBox="0 0 512 512" width="512" xmlns="http://www.w3.org/2000/svg"><g><g><path d="m225 512h-180c-24.813 0-45-20.187-45-45v-180c0-24.813 20.187-45 45-45h180c24.813 0 45 20.187 45 45v180c0 24.813-20.187 45-45 45z" fill="#fff47d"/></g><g><path d="m225 242h-90v270h90c24.813 0 45-20.187 45-45v-180c0-24.813-20.187-45-45-45z" fill="#ffdd54"/></g><circle cx="185" cy="377" fill="#453d81" r="15"/><g fill="#453d81"><circle cx="185" cy="302" r="15"/><circle cx="185" cy="452" r="15"/></g><circle cx="85" cy="377" fill="#5e54ac" r="15"/><g fill="#5e54ac"><circle cx="85" cy="302" r="15"/><circle cx="85" cy="452" r="15"/></g><g><g><path d="m498.819 204.099-127.278 127.279c-8.5 8.5-19.8 13.181-31.82 13.181s-23.32-4.681-31.82-13.181l-127.28-127.279c-17.544-17.545-17.544-46.094 0-63.639l127.28-127.279c8.499-8.5 19.8-13.181 31.82-13.181s23.32 4.681 31.819 13.181l127.279 127.279c8.5 8.499 13.181 19.8 13.181 31.819s-4.681 23.321-13.181 31.82z" fill="#f9f9f9"/></g><g><path d="m339.721 344.559c-12.02 0-23.32-4.681-31.82-13.181l-127.28-127.279c-17.544-17.545-17.544-46.094 0-63.639l63.645-63.645 190.918 190.918-63.645 63.645c-8.498 8.5-19.798 13.181-31.818 13.181z" fill="#e2dff4"/></g><g><path d="m339.721 217.279c-24.813 0-45-20.187-45-45s20.187-45 45-45 45 20.187 45 45-20.187 45-45 45z" fill="#ff8659"/></g><g><path d="m339.721 217.279c-24.813 0-45-20.187-45-45 0-12.409 5.049-23.661 13.201-31.81l63.61 63.61c-8.15 8.151-19.402 13.2-31.811 13.2z" fill="#ff4a4a"/></g></g></g></svg>