<svg id="_001-quiz" data-name="001-quiz" xmlns="http://www.w3.org/2000/svg" width="162" height="162" viewBox="0 0 162 162">
  <g id="Group_5" data-name="Group 5" transform="translate(10.452 31.355)">
    <path id="Path_3" data-name="Path 3" d="M104.879,372.684l10.734-3.1V352H32v26.129H98.41A10.429,10.429,0,0,1,104.879,372.684Zm0,0" transform="translate(-32 -268.387)" fill="#f0bc5e"/>
    <path id="Path_4" data-name="Path 4" d="M313.032,196.041c-.745-3.533-2.715-9.456-7.91-16.385l-2.536-3.381-3.112,6.226c-4.053-2.549-12.757-6.5-27.8-6.5h-3.625l2.253,6.762-9.08-2.27v3.347a50.813,50.813,0,0,0,1.346,11.63L256,193.279V196.9c0,13.7,5.435,22.006,5.665,22.354l2.318-.027a7.685,7.685,0,0,1-.144-1.424,7.837,7.837,0,0,1,7.839-7.839h.112a6.333,6.333,0,0,1,9.067-4.557l9.111,4.557,9.111-4.557a6.333,6.333,0,0,1,9.067,4.557h.112a7.837,7.837,0,0,1,7.839,7.839,7.615,7.615,0,0,1-.087.855l2.567-.029c.112-.334,2.746-8.392,2.746-21.729v-3.625Zm0,0" transform="translate(-182.839 -149.871)" fill="#f0bc5e"/>
    <path id="Path_5" data-name="Path 5" d="M39.839,111.677a7.839,7.839,0,1,1,7.839-7.839A7.849,7.849,0,0,1,39.839,111.677Zm0,0" transform="translate(-32 -96)" fill="#f0bc5e"/>
    <path id="Path_6" data-name="Path 6" d="M39.839,175.677a7.839,7.839,0,1,1,7.839-7.839A7.849,7.849,0,0,1,39.839,175.677Zm0,0" transform="translate(-32 -139.097)" fill="#f0bc5e"/>
    <path id="Path_7" data-name="Path 7" d="M39.839,239.677a7.839,7.839,0,1,1,7.839-7.839A7.849,7.849,0,0,1,39.839,239.677Zm0,0" transform="translate(-32 -182.194)" fill="#f0bc5e"/>
    <path id="Path_8" data-name="Path 8" d="M39.839,303.677a7.839,7.839,0,1,1,7.839-7.839A7.849,7.849,0,0,1,39.839,303.677Zm0,0" transform="translate(-32 -225.29)" fill="#f0bc5e"/>
    <path id="Path_9" data-name="Path 9" d="M103.839,111.677a7.839,7.839,0,1,1,7.839-7.839A7.849,7.849,0,0,1,103.839,111.677Zm0,0" transform="translate(-75.097 -96)" fill="#f0bc5e"/>
    <path id="Path_10" data-name="Path 10" d="M103.839,175.677a7.839,7.839,0,1,1,7.839-7.839A7.849,7.849,0,0,1,103.839,175.677Zm0,0" transform="translate(-75.097 -139.097)" fill="#f0bc5e"/>
    <path id="Path_11" data-name="Path 11" d="M103.839,239.677a7.839,7.839,0,1,1,7.839-7.839A7.849,7.849,0,0,1,103.839,239.677Zm0,0" transform="translate(-75.097 -182.194)" fill="#f0bc5e"/>
    <path id="Path_12" data-name="Path 12" d="M103.839,303.677a7.839,7.839,0,1,1,7.839-7.839A7.849,7.849,0,0,1,103.839,303.677Zm0,0" transform="translate(-75.097 -225.29)" fill="#f0bc5e"/>
    <path id="Path_13" data-name="Path 13" d="M167.839,111.677a7.839,7.839,0,1,1,7.839-7.839A7.849,7.849,0,0,1,167.839,111.677Zm0,0" transform="translate(-118.194 -96)" fill="#f0bc5e"/>
    <path id="Path_14" data-name="Path 14" d="M167.839,175.677a7.839,7.839,0,1,1,7.839-7.839A7.849,7.849,0,0,1,167.839,175.677Zm0,0" transform="translate(-118.194 -139.097)" fill="#f0bc5e"/>
    <path id="Path_15" data-name="Path 15" d="M167.839,239.677a7.839,7.839,0,1,1,7.839-7.839A7.849,7.849,0,0,1,167.839,239.677Zm0,0" transform="translate(-118.194 -182.194)" fill="#f0bc5e"/>
    <path id="Path_16" data-name="Path 16" d="M167.839,303.677a7.839,7.839,0,1,1,7.839-7.839A7.849,7.849,0,0,1,167.839,303.677Zm0,0" transform="translate(-118.194 -225.29)" fill="#f0bc5e"/>
  </g>
  <path id="Path_17" data-name="Path 17" d="M152.558,133.141l-24.525-7.073v-5.346l2.307-1.54a18.2,18.2,0,0,0,7.233-9.612,10.42,10.42,0,0,0,.179-20.54,8.968,8.968,0,0,0-8.22-5.417,9.064,9.064,0,0,0-4.006.943l-7.943,3.974-7.948-3.974A8.949,8.949,0,0,0,97.411,89.03a10.42,10.42,0,0,0,.179,20.54,18.225,18.225,0,0,0,7.233,9.612l2.307,1.54v5.346L82.6,133.141a13.125,13.125,0,0,0-9.442,12.552v.63H5.226V26.129h20.9V5.226h88.839v5.226H80.384L59.481,20.9l20.9,10.452h34.584v27.82a48.538,48.538,0,0,1,5.226,1.534V31.355h31.355a10.452,10.452,0,0,0,0-20.9H120.194V0H22.434L0,22.434V151.548H73.161V162H162V145.692A13.125,13.125,0,0,0,152.558,133.141ZM141.1,99.29a5.209,5.209,0,0,1-2.613,4.5v-9A5.209,5.209,0,0,1,141.1,99.29Zm-47.032,0a5.209,5.209,0,0,1,2.613-4.5v9A5.209,5.209,0,0,1,94.065,99.29Zm31.355-73.161H83.613V15.677h41.806Zm5.226-10.452h5.226V26.129h-5.226ZM78.387,17.293v7.221L71.165,20.9ZM156.774,20.9a5.231,5.231,0,0,1-5.226,5.226H141.1V15.677h10.452A5.231,5.231,0,0,1,156.774,20.9ZM8.921,20.9,20.9,8.921V20.9ZM112.355,124.1a11.029,11.029,0,0,0,10.452,0v3.206l-5.226,8.711-5.226-8.711ZM101.9,103.965v-11.4a3.731,3.731,0,0,1,5.4-3.336l10.282,5.143,10.277-5.14a3.731,3.731,0,0,1,5.4,3.334v11.4a13.045,13.045,0,0,1-5.819,10.87l-6.522,4.347a6.109,6.109,0,0,1-6.675,0l-6.522-4.347A13.046,13.046,0,0,1,101.9,103.965Zm54.871,52.809H143.239l-2.192-10.963-5.124,1.026,1.985,9.937H97.253l1.988-9.94-5.124-1.026-2.194,10.966H78.387V145.692a7.877,7.877,0,0,1,5.667-7.53l24.481-7.063,9.046,15.074,9.046-15.077,24.481,7.063a7.882,7.882,0,0,1,5.667,7.533Zm0,0"/>
  <path id="Path_18" data-name="Path 18" d="M64,384h5.226v5.226H64Zm0,0" transform="translate(-43.097 -258.581)"/>
  <path id="Path_19" data-name="Path 19" d="M96,384h52.258v5.226H96Zm0,0" transform="translate(-64.645 -258.581)"/>
  <path id="Path_20" data-name="Path 20" d="M96,32h20.9v5.226H96Zm0,0" transform="translate(-64.645 -21.548)"/>
  <path id="Path_21" data-name="Path 21" d="M96,64h20.9v5.226H96Zm0,0" transform="translate(-64.645 -43.097)"/>
</svg>
