<svg xmlns="http://www.w3.org/2000/svg" width="550.445" height="459.589" viewBox="0 0 550.445 459.589">
  <g id="undraw_newspaper_k72w" transform="translate(0 0.042)">
    <path id="Path_49" data-name="Path 49" d="M698.625,656.095H364.5l.151-35.425c.381-89.639,71.929-163.5,161.555-165.025q1.452-.025,2.91-.025h0a169.016,169.016,0,0,1,59.076,10.613c63.418,23.618,105.984,83.623,108.815,151.237Z" transform="translate(-251.517 -221.981)" fill="#ffb400"/>
    <rect id="Rectangle_27" data-name="Rectangle 27" width="550.445" height="1.378" transform="translate(0 434.114)" fill="#2f2e41" opacity="0.219"/>
    <path id="Path_50" data-name="Path 50" d="M398.287,388.682l14.722,10.708L427.732,525.2h34.8L450.485,381.99,402.3,363.252Z" transform="translate(-123.9 -113.014)" fill="#2f2e41"/>
    <path id="Path_51" data-name="Path 51" d="M509.217,445.048s-4.015,45.506,12.046,46.845,77.628-13.384,77.628-13.384l29.445,104.4L672.5,560.152s-26.768-117.781-42.829-124.473-69.6-20.076-69.6-20.076l-38.814,6.692Z" transform="translate(-296.398 -209.532)" fill="#2f2e41"/>
    <path id="Path_52" data-name="Path 52" d="M647.259,710.906s-8.031,30.784-2.677,33.461a96.827,96.827,0,0,1,9.369,5.354v-5.354s6.692,6.692,6.692,12.046,36.137,6.692,36.137,0-1.339-14.723-8.031-18.738-14.723-26.768-14.723-26.768Z" transform="translate(-338.074 -301.396)" fill="#2f2e41"/>
    <path id="Path_53" data-name="Path 53" d="M505.14,509.351l2.676,25.43,9.369,16.061,22.753-25.43-17.4-28.107Z" transform="translate(-157.14 -154.716)" fill="#2f2e41"/>
    <path id="Path_54" data-name="Path 54" d="M727.055,661.282s4.928-16.851,9.826-15.118S760.515,665.3,760.515,665.3l13.384,8.031s26.768,2.677,18.738,10.707-37.476,18.738-50.86,13.384-16.061-6.692-16.061-6.692L721.7,693.4l-16.061-4.015,2.677-28.107S712.332,673.328,727.055,661.282Z" transform="translate(-357.64 -281.217)" fill="#2f2e41"/>
    <circle id="Ellipse_3" data-name="Ellipse 3" cx="30.784" cy="30.784" r="30.784" transform="translate(227.542 6.646)" fill="#9f616a"/>
    <path id="Path_55" data-name="Path 55" d="M543.6,193.093s2.677,28.107-5.354,28.107S539.583,256,561,256s29.445-41.491,29.445-41.491-14.723-5.354-12.046-22.753S543.6,193.093,543.6,193.093Z" transform="translate(-304.68 -137.595)" fill="#9f616a"/>
    <path id="Path_56" data-name="Path 56" d="M523.629,230.346l-11.251,4.821-30.536,12.919a6.2,6.2,0,0,0-3.745,6.4l11.528,102.474s-12.046,25.43,6.692,26.768l2.677,9.369,21.415-25.43,80.305-2.677,1.338-129.827-36.744-14.52S560.31,248.278,523.629,230.346Z" transform="translate(-286.843 -148.885)" fill="#3f3d56"/>
    <path id="Path_57" data-name="Path 57" d="M479.328,265.3l-4.946-1.413a4.078,4.078,0,0,0-5.147,3.279L456.11,349.5A28.591,28.591,0,0,0,458.9,367.35c4.055,7.679,12.478,14.643,29.794,6.361l12.046-87Z" transform="translate(-279.893 -162.287)" fill="#3f3d56"/>
    <path id="Path_58" data-name="Path 58" d="M635.7,238.809l16.061,2.677,44.168,61.567,4.015,10.707,25.43-8.031s-1.338,12.046,12.046,10.707c0,0-16.061,44.168-49.522,30.784s-44.168-53.537-44.168-53.537Z" transform="translate(-335.883 -154.535)" fill="#3f3d56"/>
    <path id="Path_59" data-name="Path 59" d="M433.994,150.324l-60.229-24.092-2.676,8.031,28.106,24.091Z" transform="translate(-115.439 -39.282)" fill="#ccc"/>
    <path id="Path_60" data-name="Path 60" d="M540.055,155.854c1.137-.3,1.3-1.813,1.342-2.989.2-6.3,4-12.761,10.026-14.595a16.855,16.855,0,0,1,7.1-.391,26.912,26.912,0,0,1,9.622,3.21,15.01,15.01,0,0,0,4.892,2.216c1.176.178,6.27,1.659,7.441,1.867,2.575.458,4.969,2.762,7.44,1.9,2.364-.82,2.888-3.881,2.945-6.383.13-5.7-4.2-13.588-8.008-17.828-2.892-3.218-7.247-4.7-11.5-5.475a76.587,76.587,0,0,0-15.045-.915c-6.812.121-13.814.647-19.957,3.595s-11.3,8.814-11.6,15.621c-.061,1.418.085,2.842-.034,4.256-.291,3.45-2.123,6.566-2.982,9.921a18.153,18.153,0,0,0,2.535,14.507c2.28,3.355,11.4,6.4,11.265,10.455,1.648-1.707-2.238-3.426-.59-5.133a4.06,4.06,0,0,0,1.207-4.96l-1.75-6.825a6.158,6.158,0,0,1-.152-3.8C536.132,149.479,538.16,156.36,540.055,155.854Z" transform="translate(-300.264 -116.462)" fill="#2f2e41"/>
    <path id="Path_61" data-name="Path 61" d="M359.605,127.615l-25.43,99.043,99.043,34.8,57.552-48.184,36.137-108.412-58.891,42.829Z" transform="translate(-103.956 -32.634)" fill="#f2f2f2"/>
    <rect id="Rectangle_28" data-name="Rectangle 28" width="1.338" height="99.665" transform="matrix(0.255, -0.967, 0.967, 0.255, 260.161, 107.004)" fill="#e6e6e6"/>
    <rect id="Rectangle_29" data-name="Rectangle 29" width="1.338" height="99.665" transform="matrix(0.255, -0.967, 0.967, 0.255, 257.484, 113.696)" fill="#e6e6e6"/>
    <rect id="Rectangle_30" data-name="Rectangle 30" width="1.338" height="99.665" transform="matrix(0.255, -0.967, 0.967, 0.255, 256.145, 120.388)" fill="#e6e6e6"/>
    <rect id="Rectangle_31" data-name="Rectangle 31" width="1.338" height="99.665" transform="matrix(0.255, -0.967, 0.967, 0.255, 254.807, 127.08)" fill="#e6e6e6"/>
    <rect id="Rectangle_32" data-name="Rectangle 32" width="1.338" height="99.665" transform="matrix(0.255, -0.967, 0.967, 0.255, 253.469, 133.773)" fill="#e6e6e6"/>
    <rect id="Rectangle_33" data-name="Rectangle 33" width="1.338" height="99.665" transform="matrix(0.255, -0.967, 0.967, 0.255, 252.13, 140.465)" fill="#e6e6e6"/>
    <rect id="Rectangle_34" data-name="Rectangle 34" width="1.338" height="99.665" transform="matrix(0.255, -0.967, 0.967, 0.255, 250.792, 147.157)" fill="#e6e6e6"/>
    <rect id="Rectangle_35" data-name="Rectangle 35" width="1.338" height="99.665" transform="matrix(0.255, -0.967, 0.967, 0.255, 249.453, 153.849)" fill="#e6e6e6"/>
    <rect id="Rectangle_36" data-name="Rectangle 36" width="1.338" height="99.665" transform="matrix(0.255, -0.967, 0.967, 0.255, 248.115, 160.541)" fill="#e6e6e6"/>
    <path id="Path_62" data-name="Path 62" d="M512.35,355.549s30.1-17.98,43.486-5.934-38.814,29.445-38.814,29.445Z" transform="translate(-297.511 -187.712)" fill="#9f616a"/>
    <path id="Path_63" data-name="Path 63" d="M463.866,366.213l38.814-14.723s-6.692,25.43,6.692,26.768l-18.738,22.753S453.158,401.012,463.866,366.213Z" transform="translate(-281.83 -189.588)" fill="#3f3d56"/>
    <path id="Path_64" data-name="Path 64" d="M406.99,255.6l51.5,17.359-12.189,26.569-51.5-17.358Z" transform="translate(-122.816 -79.526)" fill="#e6e6e6"/>
    <path id="Path_65" data-name="Path 65" d="M539.528,160.535l38.814-29.446-10.707,36.138-40.153,29.445Z" transform="translate(-164.09 -40.792)" fill="#ccc"/>
    <rect id="Rectangle_37" data-name="Rectangle 37" width="48.719" height="1.339" transform="matrix(0.797, -0.604, 0.604, 0.797, 356.297, 168.728)" fill="#e6e6e6"/>
    <rect id="Rectangle_38" data-name="Rectangle 38" width="48.719" height="1.339" transform="matrix(0.797, -0.604, 0.604, 0.797, 353.62, 183.451)" fill="#e6e6e6"/>
    <path id="Path_66" data-name="Path 66" d="M773.268,340.138s33.46-20.076,12.046-28.107S763.9,334.785,763.9,334.785,762.561,341.477,773.268,340.138Z" transform="translate(-375.747 -176.898)" fill="#9f616a"/>
    <path id="Path_67" data-name="Path 67" d="M291.8,171.888l-1.339,52.2,20.745-5.921-16.73.566Z" transform="translate(-90.358 -53.484)" opacity="0.1"/>
    <path id="Path_68" data-name="Path 68" d="M280.338,698.373c4.184,15.466,18.515,25.045,18.515,25.045s7.547-15.5,3.363-30.963S283.7,667.409,283.7,667.409,276.154,682.906,280.338,698.373Z" transform="translate(-224.943 -287.865)" fill="#8985a8"/>
    <path id="Path_69" data-name="Path 69" d="M276.877,702.059c11.481,11.176,12.883,28.356,12.883,28.356s-17.212-.94-28.692-12.116-12.883-28.356-12.883-28.356S265.4,690.883,276.877,702.059Z" transform="translate(-215.334 -294.875)" fill="#3f3d56"/>
    <rect id="Rectangle_39" data-name="Rectangle 39" width="20.668" height="20.668" transform="translate(431.263 261.195)" fill="#f2f2f2"/>
    <rect id="Rectangle_40" data-name="Rectangle 40" width="20.668" height="20.668" transform="translate(348.592 26.963)" fill="#f2f2f2"/>
    <circle id="Ellipse_4" data-name="Ellipse 4" cx="10.334" cy="10.334" r="10.334" transform="translate(99.204 215.727)" fill="#f2f2f2"/>
  </g>
</svg>
