<?xml version="1.0" encoding="UTF-8"?>
<svg width="1213px" height="348px" viewBox="0 0 1213 348" version="1.1" xmlns="http://www.w3.org/2000/svg" xmlns:xlink="http://www.w3.org/1999/xlink">
    <!-- Generator: sketchtool 55.2 (78181) - https://sketchapp.com -->
    <title>FA67612D-A7D8-45E7-ABBD-B124F1ECAB70</title>
    <desc>Created with sketchtool.</desc>
    <g id="Page-1" stroke="none" stroke-width="1" fill="none" fill-rule="evenodd" opacity="0.2" stroke-linecap="round">
        <g id="homepage" transform="translate(0.000000, -1651.000000)" stroke-width="5">
            <g id="cta-box" transform="translate(0.000000, 1651.000000)">
                <g id="c198af4">
                    <g id="curly-svg" transform="translate(0.000000, -331.000000)">
                        <path d="M584.533333,347.467866 C475.531834,367.406697 393.46087,337.872664 482.958521,306.701049 C531.395102,287.510645 485.792304,259.582209 487.346727,223.114043 C485.389305,192.735632 546.114143,157.917841 587.834083,156.011594 C679.244378,166.54073 553.252974,238.415192 512.127936,146.416392 C499.315142,117.918641 446.861369,110.325637 370.374813,113.332134 C151.604198,134.876562 342.938931,160.86037 402.250075,128.486157 C467.548626,106.589905 488.363818,39.3531234 389.609995,0.620489755 M639.609795,381.30055 C639.609795,381.30055 699.298351,342.638281 708.445777,326.7998 M1052.70885,195.601399 C999.903248,256.108746 868.250675,306.841779 843.968416,312.317441 C712.194303,354.849775 894.797401,263.701749 819.18081,273.635982 C766.816592,274.275662 841.32014,240.922739 697.392104,265.070665 M1124.37861,366.971714 C1124.37861,366.971714 1062.43838,401.07946 1014.35362,413.962619 C945.997401,439.492254 908.070765,451.703748 842.471564,483.687756 C731.397501,538.175712 818.931334,518.870165 873.227386,475.448676 C937.969415,405.595602 806.361619,444.98071 884.492154,382.829385 C914.832184,349.975412 953.98061,338.454773 965.091854,352.988306 C970.618691,363.376712 912.29905,371.257571 887.517841,332.569715 C868.410595,315.023288 885.253373,212.674463 1014.1937,144.11994 M0.364617691,463.985607 C53.0038981,395.712544 106.436382,374.871764 74.6378811,450.552324 C56.4709645,499.366317 107.76052,484.18031 133.821089,509.748326 C157.725937,528.676462 142.949325,597.064668 116.447376,629.342929 C47.4578711,690.234083 78.348026,548.506547 174.229685,579.49905 C203.968416,589.094253 244.722439,555.114443 293.670765,496.302249 C424.056772,319.289955 276.712844,444.104348 261.085457,509.850675 C228.928736,583.91924 260.541729,640.230285 403.235182,542.084158 C430.971714,522.714643 514.245277,455.727336 551.685757,447.98081 M27.4678661,521.671964 C27.4678661,521.671964 16.2542729,591.896052 21.9090455,609.276162 M743.455472,147.427086 C675.182409,94.7814093 654.341629,41.3489255 730.022189,73.1474263 C778.829785,91.3207396 763.643778,40.0311844 789.211794,13.9706147 C808.114343,-9.93423288 876.534533,4.84877561 908.81919,31.3443278 C963.62059,93.4444778 854.273663,74.6250875 854.446377,0.31984008 M801.109845,120.323838 C801.109845,120.323838 871.333933,131.537431 888.746027,125.882659 M859.16082,946.227686 C766.445577,1006.91414 679.353123,1011.57101 749.730735,948.082759 C786.928136,911.62099 734.045777,903.561019 721.328936,869.344528 C707.735732,842.106947 750.178511,786.454773 787.855672,768.498951 C876.189105,742.71984 787.977211,857.868666 714.369215,789.051874 C691.513443,767.744128 640.166317,781.151824 570.882559,813.570815 C377.609595,918.350425 564.044378,868.026787 606.141729,815.163618 C666.738631,761.795102 662.062569,697.385707 491.178411,725.550825 C457.838281,731.307946 353.97981,756.536932 316.807996,747.613393 M869.370115,859.710945 C869.370115,859.710945 901.731534,796.382609 901.731534,778.094153 M1279.72494,782.424788 C1236.16912,835.051274 1209.89105,864.617291 1170.49315,923.032884 C1101.54203,1025.75912 1167.67856,965.251774 1193.0035,900.516142 C1214.11294,807.64098 1119.83688,907.552624 1156.42019,814.677461 C1166.27126,771.057671 1194.41079,741.504448 1211.29835,748.54093 C1221.27736,754.777811 1174.71504,790.75982 1133.89705,769.650375 C1108.56572,764.021189 1071.98241,666.924138 1149.37091,543.088456 C1185.96062,492.425787 1216.91474,476.951924 1208.47096,568.41979 C1192.9907,647.221989 1104.34383,756.984708 1086.04898,773.872264 C993.18021,876.598501 1105.75112,706.322039 1045.24378,752.762819 C1000.21669,779.501449 1048.05837,713.358521 935.487456,806.233683 M582.428786,527.8001 C633.827086,429.634783 707.607796,383.123638 677.101449,472.864368 C662.388806,522.823388 712.488556,504.093553 740.269865,527.78091 C765.409295,544.937131 755.462269,614.22089 731.282359,648.277461 C666.706647,713.825487 687.630585,570.294053 785.444078,594.544328 M604.043578,581.296552 C604.043578,581.296552 597.755522,652.134733 604.606497,669.092654 M239.912044,901.418091 C179.251174,1017.27696 92.145927,1072.16792 128.191904,966.256072 C145.565617,907.290355 86.4271864,929.391304 53.6371814,901.443678 C23.9624188,881.185007 35.7261369,799.414693 64.2430785,759.223588 C140.454573,681.86067 115.762919,851.26077 0.31984008,822.667066 M243.826887,816.532534 C243.826887,816.532534 251.247176,732.926337 243.187206,712.904348 M854.081759,662.951724 C897.887056,659.689355 925.026553,640.925404 935.50025,606.65987 C951.217191,555.255172 1048.45497,574.24088 1082.74823,597.467666" id="Shape" stroke="#3046D9"/>
                        <path d="M153.631984,348.868766 C197.437281,345.606397 224.576778,326.842445 235.050475,292.576912 C250.767416,241.172214 348.005197,260.157921 382.298451,283.384708 M554.327636,995.361519 C510.893353,1001.89479 480.269732,989.612927 462.456772,958.515942 C435.737331,911.876862 345.133033,951.94003 316.83998,982.184108 M1103.26277,207.512244 C1134.05057,237.577211 1144.07436,275.58061 1129.78391,285.873063 C1119.63858,290.907346 1113.63838,234.583508 1151.53303,211.778911 C1168.93233,193.867866 1224.91074,203.52064 1263.47706,255.353923 C1299.38871,303.611394 1268.97831,348.190705 1212.89115,291.016092 C1158.75502,235.830885 1176.82599,193.951024 1172.21389,170.429985 C1134.86937,42.493953 1217.63118,220.664068 1210.10855,147.631784 M1247.65137,42.7562219 C1247.65137,42.7562219 1187.71974,23.5338331 1150.01059,0.300649675 M140.774413,0.620489755 C152.928336,36.4425787 162.523538,54.9933033 140.774413,77.3821089 C125.313343,93.2973513 65.7783108,57.552024 75.7509245,51.2895552 C92.6384808,44.2530735 120.778011,73.8062969 130.629085,117.426087 C167.218791,210.301249 72.9363318,110.389605 94.0457771,203.264768 C119.370715,268.0004 185.52004,328.507746 116.556122,225.781509 C77.1646177,167.365917 50.8993503,137.831884 7.32433783,85.1734133 M241.792704,55.5114443 C181.285357,9.07066467 293.856272,179.347126 200.987506,76.6208896 C192.115142,68.4265867 166.681459,38.3872064 141.094253,0.620489755" id="Shape" stroke="#CFD6DE" opacity="0.05"/>
                    </g>
                </g>
            </g>
        </g>
    </g>
</svg>